if (_typeface_js && _typeface_js.loadFace) _typeface_js.loadFace({"glyphs":{"0":{"ha":938,"x_min":0,"x_max":0,"o":"m 901 590 b 603 907 901 768 789 907 b 36 303 313 907 36 582 b 335 -15 36 125 149 -15 b 901 590 625 -15 901 311 z m 804 590 b 335 82 804 360 569 82 b 133 301 206 82 133 175 b 603 810 133 532 367 810 b 804 590 732 810 804 718 z "},"1":{"ha":389,"x_min":0,"x_max":0,"o":"m 315 42 l 315 851 b 265 901 315 878 293 901 b 232 889 254 901 242 896 l 58 735 b 42 697 47 725 42 711 b 92 646 42 669 64 646 b 126 660 101 646 115 653 l 215 740 l 215 42 b 265 -8 215 14 238 -8 b 315 42 293 -8 315 14 z "},"2":{"ha":688,"x_min":0,"x_max":0,"o":"m 636 654 b 349 906 636 818 489 906 b 76 817 261 906 149 871 b 54 776 64 807 54 794 b 101 728 54 746 78 728 b 126 735 111 728 119 731 b 350 810 199 778 268 810 b 542 654 446 810 542 756 b 415 465 542 575 481 511 b 56 78 263 356 142 254 b 50 51 53 69 50 60 b 97 0 50 26 64 0 l 576 0 b 624 49 603 0 624 21 b 576 96 624 75 603 96 l 174 96 b 469 386 249 221 349 300 b 636 654 554 446 636 536 z "},"3":{"ha":731,"x_min":0,"x_max":0,"o":"m 692 401 b 443 626 692 544 567 618 b 483 738 469 658 483 700 b 303 904 483 847 399 904 b 63 829 226 904 125 868 b 38 786 49 819 38 806 b 86 739 38 757 61 739 b 107 743 93 739 100 740 b 303 807 171 776 235 807 b 389 732 354 807 389 781 b 269 617 389 674 363 635 b 111 581 233 608 157 590 b 57 529 83 575 57 567 b 103 482 57 501 78 482 b 110 482 106 482 107 482 b 242 514 144 489 190 503 b 400 536 293 526 347 536 b 596 401 492 536 596 499 b 82 83 596 244 351 114 b 40 35 58 81 40 60 b 90 -14 40 4 64 -14 l 93 -12 b 692 401 363 -7 692 165 z "},"4":{"ha":785,"x_min":0,"x_max":0,"o":"m 763 281 b 713 331 763 308 739 331 l 604 331 l 604 544 b 554 594 604 572 582 594 b 504 544 526 594 504 572 l 504 331 l 179 331 l 582 818 b 594 850 590 828 594 839 b 543 900 594 882 569 900 b 506 882 529 900 515 894 l 33 313 b 22 281 26 304 22 292 b 72 231 22 253 44 231 l 504 231 l 504 40 b 554 -10 504 13 526 -10 b 604 40 582 -10 604 13 l 604 231 l 713 231 b 763 281 739 231 763 253 z "},"5":{"ha":696,"x_min":0,"x_max":0,"o":"m 647 388 b 365 624 647 550 500 624 b 163 585 294 624 228 606 l 163 794 l 531 794 b 579 843 557 794 579 817 b 531 892 579 869 557 892 l 115 892 b 68 843 89 892 68 869 l 68 519 b 115 471 68 490 90 471 b 129 474 119 471 125 471 b 367 526 207 497 285 526 b 551 386 460 526 551 483 b 65 82 551 226 321 111 b 24 33 40 79 24 58 b 74 -15 24 1 47 -15 l 75 -14 b 647 388 300 -11 647 133 z "},"6":{"ha":818,"x_min":0,"x_max":0,"o":"m 769 389 b 556 611 769 515 685 611 b 176 210 360 611 178 404 b 146 349 156 253 146 303 b 475 764 146 549 296 693 b 633 810 528 785 579 797 b 672 857 656 815 672 832 b 625 906 672 883 650 906 b 615 904 621 906 618 906 b 374 825 532 888 451 864 b 50 349 192 733 50 564 b 385 -15 50 151 179 -15 b 769 389 582 -15 769 194 z m 674 389 b 385 82 674 247 526 82 b 267 208 310 82 267 132 b 556 515 267 350 414 515 b 674 389 631 515 674 464 z "},"7":{"ha":733,"x_min":0,"x_max":0,"o":"m 708 842 b 657 892 708 869 685 892 l 83 892 b 33 842 56 892 33 869 b 83 792 33 814 56 792 l 564 792 l 81 68 b 72 40 75 60 72 50 b 122 -10 72 14 93 -10 b 164 13 139 -10 156 -1 l 699 814 b 708 842 704 822 708 832 z "},"8":{"ha":840,"x_min":0,"x_max":0,"o":"m 800 397 b 582 626 800 531 696 610 b 625 746 607 660 625 701 b 431 906 625 857 521 906 b 125 660 307 906 125 810 b 218 519 125 593 165 544 b 39 210 126 450 39 332 b 307 -14 39 54 178 -14 b 800 397 517 -14 800 164 z m 529 747 b 318 596 529 661 404 596 b 221 657 271 596 221 617 b 432 808 221 743 347 808 b 529 747 479 808 529 789 z m 704 397 b 306 83 704 228 476 83 b 135 210 218 83 135 121 b 535 532 135 379 378 532 b 704 397 619 532 704 488 z "},"9":{"ha":818,"x_min":0,"x_max":0,"o":"m 767 543 b 433 906 767 740 639 906 b 49 503 235 906 49 696 b 261 281 49 376 132 281 b 640 681 458 281 639 488 b 671 543 661 639 671 589 b 342 128 671 343 521 199 b 183 82 289 107 238 94 b 144 35 161 76 144 60 b 192 -14 144 8 167 -14 b 201 -12 196 -14 199 -14 b 443 67 285 4 367 28 b 767 543 626 158 767 326 z m 550 683 b 261 376 550 542 403 376 b 144 503 186 376 144 428 b 432 810 144 644 290 810 b 550 683 507 810 550 760 z "}," ":{"ha":328,"x_min":0,"x_max":0,"o":""},"Ý":{"ha":775,"x_min":0,"x_max":0,"o":"m 558 1096 b 514 1140 558 1121 539 1140 b 488 1132 504 1140 496 1138 l 347 1035 b 328 997 335 1025 328 1011 b 372 951 328 972 347 951 b 399 960 382 951 390 954 l 539 1058 b 558 1096 551 1067 558 1081 z m 750 851 b 700 903 750 879 728 903 b 660 882 685 903 669 894 l 392 515 l 114 882 b 75 901 106 894 90 901 b 24 851 47 901 24 879 b 35 821 24 840 28 829 l 343 414 l 343 40 b 393 -10 343 13 365 -10 b 443 40 421 -10 443 13 l 443 415 l 740 822 b 750 851 747 831 750 842 z "},"ý":{"ha":647,"x_min":0,"x_max":0,"o":"m 506 861 b 461 906 506 886 486 906 b 435 899 451 906 443 903 l 294 800 b 275 763 282 792 275 778 b 319 718 275 738 294 718 b 346 725 329 718 338 721 l 486 824 b 506 861 499 832 506 846 z m 624 544 b 574 593 624 575 599 593 b 531 564 557 593 539 583 l 331 106 l 117 565 b 75 593 108 585 92 593 b 24 546 50 593 24 574 b 29 524 24 539 25 532 l 279 -15 b 125 -156 238 -110 196 -156 b 61 -146 107 -156 85 -151 b 46 -143 56 -144 51 -143 b 0 -192 18 -143 0 -167 b 35 -239 0 -212 10 -232 b 126 -253 68 -249 99 -253 b 376 -36 238 -253 314 -183 l 619 525 b 624 544 622 532 624 539 z "},"Þ":{"ha":722,"x_min":0,"x_max":0,"o":"m 689 569 b 410 797 689 728 540 797 b 164 743 325 797 240 774 l 164 853 b 114 903 164 879 142 903 b 64 853 86 903 64 879 l 64 39 b 114 -11 64 11 86 -11 b 164 39 142 -11 164 11 l 164 215 b 689 569 350 242 689 325 z m 589 569 b 164 311 589 401 321 338 l 164 635 b 407 696 240 669 325 696 b 589 569 496 696 589 660 z "},"þ":{"ha":718,"x_min":0,"x_max":0,"o":"m 689 372 b 418 599 689 528 550 599 b 144 531 325 599 229 569 l 144 851 b 96 900 144 878 122 900 b 47 851 69 900 47 878 l 47 -200 b 96 -249 47 -226 69 -249 b 144 -200 122 -249 144 -226 l 144 -15 b 689 372 343 17 689 114 z m 592 372 b 144 79 592 190 311 110 l 144 422 b 417 501 228 465 325 501 b 592 372 504 501 592 464 z "},"Ž":{"ha":683,"x_min":0,"x_max":0,"o":"m 556 1110 b 511 1156 556 1135 536 1156 b 486 1149 503 1156 493 1153 l 358 1065 l 233 1147 b 208 1156 226 1153 217 1156 b 164 1110 183 1156 164 1135 b 185 1072 164 1094 172 1081 l 335 974 b 358 967 342 969 350 967 b 383 974 367 967 376 969 l 535 1072 b 556 1110 549 1081 556 1094 z m 653 49 b 606 97 653 75 631 97 l 172 97 l 626 818 b 635 844 632 825 635 835 b 588 892 635 871 614 892 l 133 892 b 86 844 107 892 86 871 b 133 796 86 817 107 796 l 500 796 l 46 75 b 38 49 40 67 38 57 b 85 0 38 22 60 0 l 606 0 b 653 49 631 0 653 22 z "},"ž":{"ha":572,"x_min":0,"x_max":0,"o":"m 457 861 b 413 906 457 886 438 906 b 388 899 404 906 396 903 l 260 817 l 135 899 b 110 906 128 903 119 906 b 65 860 86 906 65 885 b 86 822 65 844 74 831 l 236 725 b 260 718 243 719 251 718 b 285 725 269 718 278 719 l 438 822 b 457 861 450 831 457 846 z m 546 49 b 497 97 546 75 525 97 l 179 97 l 510 504 b 521 536 517 514 521 525 b 472 585 521 563 499 585 l 83 585 b 35 536 57 585 35 563 b 83 486 35 508 57 486 l 369 486 l 39 79 b 28 49 32 71 28 60 b 76 0 28 22 50 0 l 497 0 b 546 49 525 0 546 22 z "},"½":{"ha":1179,"x_min":0,"x_max":0,"o":"m 1132 47 b 1085 94 1132 72 1111 94 l 828 94 b 1008 261 875 163 936 213 b 1128 451 1069 304 1128 367 b 918 632 1128 568 1019 632 b 703 532 871 632 703 600 b 751 485 703 506 725 485 b 775 492 761 485 768 488 b 918 538 822 518 867 538 b 1032 451 976 538 1032 507 b 954 339 1032 407 994 367 b 706 72 849 267 764 192 b 700 47 703 65 700 54 b 747 0 700 21 721 0 l 1085 0 b 1132 47 1111 0 1132 21 z m 900 854 b 853 901 900 883 876 901 b 815 883 839 901 825 896 l 139 67 b 129 38 132 58 129 47 b 176 -10 129 14 147 -10 b 213 7 190 -10 204 -4 l 889 824 b 900 854 896 832 900 843 z m 276 325 l 276 854 b 229 901 276 881 256 901 b 203 893 219 901 210 899 l 64 796 b 44 757 51 788 44 772 b 92 710 44 732 65 710 b 182 764 115 710 182 764 l 182 325 b 229 278 182 299 203 278 b 276 325 256 278 276 299 z "},"¼":{"ha":1163,"x_min":0,"x_max":0,"o":"m 1121 193 b 1074 239 1121 218 1100 239 l 1003 239 l 1003 379 b 956 426 1003 406 982 426 b 908 379 929 426 908 406 l 908 239 l 669 239 l 965 597 b 975 626 972 606 975 617 b 928 674 975 653 954 674 b 892 657 914 674 901 668 l 532 222 b 521 193 525 214 521 203 b 569 146 521 167 543 146 l 908 146 l 908 39 b 956 -8 908 13 929 -8 b 1003 39 982 -8 1003 13 l 1003 146 l 1074 146 b 1121 193 1100 146 1121 167 z m 900 854 b 851 901 900 883 876 901 b 815 883 839 901 825 896 l 139 67 b 129 38 132 58 129 47 b 176 -10 129 14 147 -10 b 213 7 190 -10 204 -4 l 889 824 b 900 854 896 832 900 843 z m 276 325 l 276 854 b 229 901 276 881 256 901 b 201 893 219 901 210 899 l 64 796 b 44 757 51 788 44 772 b 92 710 44 732 65 710 b 182 764 121 710 172 757 l 182 325 b 229 278 182 299 203 278 b 276 325 256 278 276 299 z "},"¹":{"ha":374,"x_min":0,"x_max":0,"o":"m 276 325 l 276 854 b 229 901 276 881 256 901 b 203 893 219 901 210 899 l 64 796 b 44 757 51 788 44 772 b 92 710 44 732 65 710 b 182 764 115 710 182 764 l 182 325 b 229 278 182 299 203 278 b 276 325 256 278 276 299 z "},"¾":{"ha":1269,"x_min":0,"x_max":0,"o":"m 1229 193 b 1182 240 1229 218 1207 240 l 1110 240 l 1110 379 b 1063 426 1110 406 1089 426 b 1015 379 1036 426 1015 406 l 1015 240 l 776 240 l 1072 597 b 1083 628 1079 606 1083 617 b 1036 675 1083 653 1063 675 b 999 657 1022 675 1008 668 l 639 222 b 628 193 632 214 628 203 b 675 146 628 167 649 146 l 1015 146 l 1015 39 b 1063 -8 1015 13 1036 -8 b 1110 39 1089 -8 1110 13 l 1110 146 l 1182 146 b 1229 193 1207 146 1229 167 z m 1007 854 b 960 901 1007 883 983 901 b 922 883 946 901 932 896 l 244 67 b 235 38 238 58 235 47 b 282 -10 235 14 253 -10 b 318 7 296 -10 310 -4 l 996 824 b 1007 854 1003 832 1007 843 z m 518 560 b 365 722 518 653 443 706 b 378 781 374 740 378 760 b 240 906 378 861 314 906 b 71 854 183 906 117 881 b 46 813 56 846 46 831 b 93 765 46 788 68 765 b 240 811 119 765 185 811 b 282 781 268 811 282 801 b 236 722 282 753 263 729 b 107 692 196 710 142 700 b 58 643 89 688 58 679 b 107 597 58 607 85 597 b 128 600 115 597 122 599 b 306 633 186 614 246 633 b 422 560 363 633 422 611 b 89 367 422 428 188 382 b 47 321 67 364 47 346 b 97 274 47 290 71 272 l 100 274 b 518 560 242 278 518 365 z "},"³":{"ha":557,"x_min":0,"x_max":0,"o":"m 518 560 b 365 722 518 653 443 706 b 378 781 374 740 378 760 b 240 906 378 861 314 906 b 71 854 183 906 117 881 b 46 813 56 846 46 831 b 93 765 46 788 68 765 b 240 811 119 765 185 811 b 282 781 268 811 282 801 b 236 722 282 753 263 729 b 107 692 196 710 142 700 b 58 643 89 688 58 679 b 107 597 58 607 85 597 b 128 600 115 597 122 599 b 306 633 186 614 246 633 b 422 560 363 633 422 611 b 89 367 422 428 188 382 b 47 321 67 364 47 346 b 97 274 47 290 71 272 l 100 274 b 518 560 242 278 518 365 z "},"²":{"ha":547,"x_min":0,"x_max":0,"o":"m 493 321 b 446 368 493 347 471 368 l 189 368 b 369 535 236 436 297 486 b 488 725 431 578 488 642 b 278 906 488 843 381 906 b 64 806 232 906 64 874 b 111 758 64 779 86 758 b 136 765 121 758 129 761 b 279 813 183 792 228 813 b 393 725 336 813 393 781 b 315 613 393 681 356 640 b 67 347 210 540 125 465 b 61 321 63 339 61 328 b 108 274 61 294 82 274 l 446 274 b 493 321 471 274 493 294 z "},"¦":{"ha":228,"x_min":0,"x_max":0,"o":"m 164 554 l 164 849 b 114 900 164 876 142 900 b 64 849 86 900 64 876 l 64 554 b 114 504 64 526 86 504 b 164 554 142 504 164 526 z m 164 42 l 164 331 b 114 381 164 358 142 381 b 64 331 86 381 64 358 l 64 42 b 114 -8 64 14 86 -8 b 164 42 142 -8 164 14 z "},"−":{"ha":583,"x_min":0,"x_max":0,"o":"m 560 381 b 510 432 560 408 538 432 l 74 432 b 24 381 46 432 24 408 b 74 331 24 354 46 331 l 510 331 b 560 381 538 331 560 354 z "},"×":{"ha":614,"x_min":0,"x_max":0,"o":"m 574 140 b 560 174 574 153 568 165 l 374 360 l 533 519 b 547 553 543 528 547 540 b 500 599 547 581 525 599 b 468 585 489 599 476 594 l 307 425 l 147 585 b 114 599 138 594 125 599 b 67 553 89 599 67 581 b 81 519 67 540 71 528 l 240 360 l 54 174 b 40 140 46 165 40 153 b 88 93 40 111 64 93 b 121 107 100 93 111 97 l 307 293 l 493 107 b 526 93 503 97 514 93 b 574 140 550 93 574 111 z "},"š":{"ha":457,"x_min":0,"x_max":0,"o":"m 444 861 b 399 906 444 886 424 906 b 375 899 390 906 382 903 l 247 817 l 121 899 b 97 906 114 903 106 906 b 51 860 72 906 51 885 b 72 822 51 844 60 831 l 222 725 b 247 718 229 719 239 718 b 271 725 256 718 264 719 l 424 822 b 444 861 436 831 444 846 z m 435 161 b 235 356 435 249 371 326 b 131 442 183 367 131 393 b 231 507 131 483 171 507 b 354 478 268 507 311 497 b 372 474 360 475 365 474 b 414 501 389 474 406 483 b 418 521 417 508 418 515 b 225 600 418 585 263 600 b 39 438 136 600 39 547 b 215 265 39 338 132 285 b 343 156 317 242 343 201 b 236 79 343 121 308 79 b 99 140 181 79 125 104 b 64 158 89 153 76 158 b 17 111 40 158 17 136 b 26 83 17 101 19 92 b 236 -15 72 24 154 -15 b 435 161 333 -15 435 43 z "},"!":{"ha":201,"x_min":0,"x_max":0,"o":"m 164 222 l 164 850 b 114 901 164 878 142 901 b 64 850 86 901 64 878 l 64 222 b 114 172 64 196 86 172 b 164 222 142 172 164 196 z m 179 58 b 114 125 179 94 150 125 b 49 58 78 125 49 94 b 114 -7 49 22 78 -7 b 179 58 150 -7 179 22 z "},"\"":{"ha":321,"x_min":0,"x_max":0,"o":"m 294 672 l 294 851 b 246 901 294 879 272 901 b 197 851 219 901 197 879 l 197 672 b 246 624 197 646 219 624 b 294 672 272 624 294 646 z m 122 672 l 122 851 b 74 901 122 879 100 901 b 25 851 47 901 25 879 l 25 672 b 74 624 25 646 47 624 b 122 672 100 624 122 646 z "},"#":{"ha":719,"x_min":0,"x_max":0,"o":"m 692 704 b 642 753 692 731 669 753 l 578 753 l 606 833 b 608 850 607 839 608 844 b 575 896 608 869 596 889 b 560 899 569 897 564 899 b 513 865 539 899 519 886 l 474 753 l 354 753 l 383 833 b 386 850 385 839 386 844 b 353 896 386 869 372 889 b 336 899 347 897 342 899 b 290 865 317 899 297 886 l 251 753 l 147 753 b 99 704 121 753 99 731 b 147 656 99 676 121 656 l 218 656 l 183 556 l 78 556 b 29 507 51 556 29 533 b 78 458 29 481 51 458 l 150 458 l 115 356 b 113 339 113 350 113 344 b 144 293 113 319 125 300 b 161 290 150 292 156 290 b 207 324 181 290 200 303 l 253 458 l 372 458 l 338 356 b 335 339 336 350 335 344 b 368 293 335 319 347 300 b 383 290 372 292 378 290 b 429 324 404 290 422 303 l 476 458 l 572 458 b 621 507 599 458 621 481 b 572 556 621 533 599 556 l 510 556 l 543 656 l 642 656 b 692 704 669 656 692 676 z m 440 656 l 406 556 l 288 556 l 321 656 z "},"$":{"ha":489,"x_min":0,"x_max":0,"o":"m 440 318 b 242 517 440 408 376 488 b 138 603 190 528 138 554 b 238 671 138 646 176 671 b 360 640 274 671 317 660 b 379 636 367 638 374 636 b 424 685 406 636 424 661 b 397 726 424 701 417 718 b 275 763 356 746 315 757 l 275 853 b 231 900 275 879 256 900 b 185 853 206 900 185 879 l 185 760 b 46 600 111 744 46 692 b 222 424 46 497 138 444 b 349 313 324 400 349 360 b 242 235 349 276 315 235 b 104 297 188 235 132 261 b 71 315 94 310 82 315 b 22 268 46 315 22 294 b 33 239 22 258 26 249 b 185 146 68 193 124 160 l 185 38 b 231 -10 185 11 206 -10 b 275 38 256 -10 275 11 l 275 143 b 440 318 361 154 440 213 z "},"%":{"ha":958,"x_min":0,"x_max":0,"o":"m 922 331 b 786 482 922 408 878 482 b 490 138 631 482 490 276 b 625 -15 490 58 535 -15 b 922 331 781 -15 922 192 z m 811 853 b 763 900 811 879 790 900 b 724 881 747 900 733 893 l 149 67 b 139 39 143 58 139 49 b 188 -10 139 11 161 -10 b 226 10 203 -10 218 -3 l 803 824 b 811 853 808 832 811 842 z m 468 756 b 333 907 468 833 424 907 b 36 563 178 907 36 701 b 171 411 36 483 81 411 b 468 756 326 411 468 617 z m 825 331 b 625 82 825 238 718 82 b 586 138 599 82 586 103 b 786 386 586 231 693 386 b 825 331 814 386 825 365 z m 371 756 b 171 507 371 663 265 507 b 133 563 144 507 133 528 b 333 811 133 656 239 811 b 371 756 360 811 371 790 z "},"&":{"ha":647,"x_min":0,"x_max":0,"o":"m 593 219 b 547 268 593 242 576 268 b 533 267 543 268 539 268 b 288 228 432 239 350 228 b 131 294 244 228 131 229 b 390 451 131 354 238 429 l 539 474 b 579 519 565 478 579 497 b 533 569 579 544 564 569 b 525 569 531 569 528 569 b 272 524 432 557 367 549 b 250 521 265 522 257 521 b 199 556 222 521 199 535 b 493 690 199 604 285 690 b 536 689 507 690 521 690 l 539 689 b 586 736 563 689 586 708 b 540 786 586 763 568 785 b 490 788 524 788 507 788 b 404 782 460 788 431 786 l 404 858 b 357 906 404 885 383 906 b 310 858 331 906 310 885 l 310 764 b 104 556 222 738 104 667 b 144 463 104 518 118 486 b 36 292 90 425 36 367 b 288 132 36 186 147 132 b 310 132 294 132 303 132 l 310 33 b 357 -15 310 7 331 -15 b 404 33 383 -15 404 7 l 404 140 b 558 174 451 147 503 158 b 593 219 582 179 593 199 z "},"'":{"ha":146,"x_min":0,"x_max":0,"o":"m 122 672 l 122 851 b 74 901 122 879 100 901 b 25 851 47 901 25 879 l 25 672 b 74 624 25 646 47 624 b 122 672 100 624 122 646 z "},"(":{"ha":378,"x_min":0,"x_max":0,"o":"m 364 -118 b 340 -76 364 -97 354 -85 b 106 369 190 26 106 169 b 349 885 106 583 210 740 b 364 921 358 893 364 906 b 318 969 364 951 342 969 b 289 957 308 969 297 965 b 14 369 129 815 14 596 b 297 -161 14 156 114 -61 b 318 -167 304 -165 311 -167 b 364 -118 342 -167 364 -147 z "},")":{"ha":378,"x_min":0,"x_max":0,"o":"m 365 432 b 81 963 365 646 265 863 b 60 968 74 967 67 968 b 14 919 36 968 14 949 b 38 876 14 899 25 886 b 274 432 189 774 274 632 b 29 -83 274 217 169 61 b 14 -119 21 -93 14 -104 b 60 -168 14 -150 36 -168 b 89 -157 69 -168 81 -164 b 365 432 249 -14 365 206 z "},"*":{"ha":418,"x_min":0,"x_max":0,"o":"m 408 728 b 361 778 408 756 393 778 l 299 778 l 333 829 b 342 856 339 838 342 847 b 294 903 342 881 321 903 b 254 882 279 903 263 896 l 208 813 l 163 882 b 121 903 153 897 136 903 b 75 856 94 903 75 881 b 83 829 75 847 78 838 l 117 778 l 56 778 b 7 732 29 778 7 758 b 56 682 7 701 25 682 l 121 682 l 83 624 b 75 597 78 615 75 606 b 122 550 75 572 94 550 b 163 571 138 550 153 557 l 208 640 l 254 571 b 296 550 264 557 279 550 b 342 597 322 550 342 574 b 333 624 342 607 339 615 l 294 682 l 361 683 b 408 728 392 683 408 706 z "},"+":{"ha":644,"x_min":0,"x_max":0,"o":"m 610 382 b 563 429 610 408 589 429 l 372 429 l 372 639 b 325 686 372 665 351 686 b 278 639 299 686 278 665 l 278 429 l 82 429 b 35 382 56 429 35 408 b 82 335 35 356 56 335 l 278 335 l 278 132 b 325 85 278 106 299 85 b 372 132 351 85 372 106 l 372 335 l 563 335 b 610 382 589 335 610 356 z "},",":{"ha":190,"x_min":0,"x_max":0,"o":"m 175 50 b 108 124 175 89 156 124 b 43 60 75 124 43 96 b 65 10 43 42 51 21 b 17 -93 61 -26 38 -74 b 0 -131 7 -103 0 -115 b 50 -181 0 -161 25 -181 b 83 -168 61 -181 74 -176 b 175 50 128 -129 175 -11 z "},"-":{"ha":358,"x_min":0,"x_max":0,"o":"m 324 347 b 275 396 324 375 301 396 l 85 396 b 36 347 58 396 36 375 b 85 299 36 321 58 299 l 275 299 b 324 347 301 299 324 321 z "},".":{"ha":183,"x_min":0,"x_max":0,"o":"m 169 58 b 104 125 169 94 140 125 b 39 58 68 125 39 94 b 104 -7 39 22 68 -7 b 169 58 140 -7 169 22 z "},"/":{"ha":681,"x_min":0,"x_max":0,"o":"m 658 856 b 607 906 658 886 633 906 b 567 883 592 906 576 899 l 29 63 b 21 36 24 54 21 46 b 72 -14 21 4 46 -14 b 114 8 88 -14 103 -7 l 650 828 b 658 856 656 836 658 846 z "},":":{"ha":188,"x_min":0,"x_max":0,"o":"m 165 457 b 100 524 165 493 136 524 b 35 457 64 524 35 493 b 100 392 35 421 64 392 b 165 457 136 392 165 421 z m 165 207 b 100 272 165 243 136 272 b 35 207 64 272 35 243 b 100 142 35 171 64 142 b 165 207 136 142 165 171 z "},";":{"ha":206,"x_min":0,"x_max":0,"o":"m 179 457 b 114 524 179 493 150 524 b 49 457 78 524 49 493 b 114 392 49 421 78 392 b 179 457 150 392 179 421 z m 182 208 b 115 282 182 246 163 282 b 50 217 82 282 50 253 b 72 167 50 199 58 179 b 24 64 68 129 44 83 b 7 26 14 56 7 42 b 57 -22 7 -4 32 -22 b 90 -11 68 -22 81 -19 b 182 208 135 28 182 146 z "},"<":{"ha":582,"x_min":0,"x_max":0,"o":"m 556 618 b 506 668 556 647 531 668 b 481 661 497 668 488 665 l 39 403 b 14 360 24 393 14 376 b 39 315 14 342 24 325 l 481 58 b 506 51 488 53 497 51 b 556 101 531 51 556 71 b 531 144 556 119 546 136 l 163 360 l 531 574 b 556 618 546 583 556 600 z "},"=":{"ha":533,"x_min":0,"x_max":0,"o":"m 515 457 b 467 506 515 483 493 506 l 65 506 b 15 457 38 506 15 483 b 65 408 15 431 38 408 l 467 408 b 515 457 493 408 515 431 z m 515 232 b 467 281 515 258 493 281 l 65 281 b 15 232 38 281 15 258 b 65 183 15 206 38 183 l 467 183 b 515 232 493 183 515 206 z "},">":{"ha":582,"x_min":0,"x_max":0,"o":"m 569 360 b 544 403 569 376 560 393 l 103 661 b 78 668 94 665 86 668 b 28 618 51 668 28 647 b 51 574 28 600 36 583 l 419 360 l 51 144 b 28 101 36 136 28 119 b 78 51 28 71 51 51 b 103 58 86 51 94 53 l 544 315 b 569 360 560 325 569 342 z "},"?":{"ha":650,"x_min":0,"x_max":0,"o":"m 626 672 b 346 906 626 796 526 906 b 46 813 232 906 142 869 b 22 774 29 803 22 789 b 69 722 22 749 43 722 b 94 731 78 722 86 725 b 343 810 174 776 250 810 b 532 671 465 810 532 747 b 356 483 532 601 475 525 b 139 256 182 424 139 326 l 139 219 b 188 171 139 193 161 171 b 235 219 214 171 235 193 l 235 256 b 386 393 235 317 310 365 b 626 672 551 450 626 563 z m 258 58 b 193 125 258 94 229 125 b 128 58 157 125 128 94 b 193 -7 128 22 157 -7 b 258 58 229 -7 258 22 z "},"@":{"ha":1186,"x_min":0,"x_max":0,"o":"m 1157 532 b 681 906 1157 714 1004 906 b 29 378 325 906 29 706 b 517 -17 29 101 274 -17 b 867 69 643 -17 774 17 b 896 115 888 81 896 96 b 849 163 896 142 875 163 b 822 156 840 163 831 161 b 517 81 744 113 625 81 b 128 376 318 81 128 167 b 681 810 128 668 411 810 b 1060 532 946 810 1060 663 b 897 306 1060 411 1000 306 b 808 401 840 306 808 343 b 867 625 808 460 860 601 b 869 639 868 629 869 635 b 826 690 869 664 851 685 b 704 701 783 697 743 701 b 274 379 525 701 274 589 b 454 211 274 278 347 211 b 724 325 529 211 622 243 b 897 208 751 253 817 208 b 1157 532 1071 208 1157 376 z m 757 601 b 714 447 742 550 722 500 b 456 307 611 346 517 307 b 371 382 399 307 371 338 b 704 603 371 471 488 603 b 757 601 721 603 739 603 z "},"A":{"ha":867,"x_min":0,"x_max":0,"o":"m 840 39 b 836 60 840 46 839 53 l 485 875 b 433 907 475 894 456 907 b 383 874 413 907 392 894 l 32 60 b 28 40 29 54 28 47 b 78 -10 28 13 50 -10 b 124 21 99 -10 117 1 l 236 281 l 632 281 l 744 19 b 790 -11 751 1 771 -11 b 840 39 818 -11 840 13 z m 589 381 l 279 381 l 433 739 z "},"B":{"ha":835,"x_min":0,"x_max":0,"o":"m 808 407 b 528 626 808 560 658 617 b 575 736 561 658 575 697 b 368 908 575 858 468 908 b 92 832 283 908 168 872 b 64 788 75 824 64 808 l 64 40 b 111 -15 64 14 83 -15 b 808 407 269 -15 808 100 z m 474 736 b 386 624 474 690 431 639 b 353 617 382 622 368 619 b 164 563 288 606 225 586 l 164 756 b 368 808 228 783 301 808 b 474 736 425 808 474 789 z m 708 406 b 164 86 708 214 344 114 l 164 460 b 485 538 265 504 378 538 b 708 406 582 538 708 508 z "},"C":{"ha":786,"x_min":0,"x_max":0,"o":"m 760 150 b 710 200 760 178 736 200 b 681 190 699 200 689 196 b 390 82 576 118 476 82 b 133 342 243 82 133 192 b 710 810 133 614 453 772 b 753 858 735 814 753 833 b 701 907 753 886 729 907 b 693 906 699 907 696 907 b 33 342 396 863 33 669 b 385 -15 33 139 185 -15 b 740 111 499 -15 618 28 b 760 150 753 121 760 135 z "},"D":{"ha":853,"x_min":0,"x_max":0,"o":"m 821 563 b 425 906 821 782 633 906 b 93 829 321 906 181 869 b 64 785 75 821 64 806 l 64 39 b 114 -10 64 11 88 -10 b 122 -10 117 -10 119 -10 b 821 563 439 43 821 231 z m 719 561 b 164 90 719 306 407 143 l 164 753 b 425 810 247 786 338 810 b 719 561 585 810 719 722 z "},"E":{"ha":606,"x_min":0,"x_max":0,"o":"m 572 47 b 522 96 572 75 550 96 l 164 96 l 164 489 l 490 489 b 540 538 518 489 540 510 b 490 585 540 564 518 585 l 164 585 l 164 794 l 515 794 b 567 843 543 794 567 817 b 515 892 567 869 543 892 l 114 892 b 64 843 86 892 64 869 l 64 47 b 114 0 64 21 86 0 l 522 0 b 572 47 550 0 572 21 z "},"F":{"ha":610,"x_min":0,"x_max":0,"o":"m 575 843 b 525 892 575 869 553 892 l 114 892 b 64 843 86 892 64 869 l 64 40 b 114 -8 64 14 86 -8 b 164 40 142 -8 164 14 l 164 489 l 476 489 b 526 538 504 489 526 510 b 476 585 526 564 504 585 l 164 585 l 164 794 l 525 794 b 575 843 553 794 575 817 z "},"G":{"ha":818,"x_min":0,"x_max":0,"o":"m 763 38 l 763 347 b 711 396 763 374 739 396 l 449 396 b 399 347 421 396 399 374 b 449 299 399 321 421 299 l 661 299 l 661 201 b 361 83 571 140 469 83 b 133 324 222 82 133 190 b 714 811 133 613 453 771 b 754 857 742 815 754 836 b 707 907 754 882 738 907 b 697 907 703 907 700 907 b 33 326 396 858 33 672 b 363 -15 33 140 163 -15 b 661 97 457 -14 576 24 l 661 38 b 711 -11 661 11 685 -11 b 763 38 739 -11 763 11 z "},"H":{"ha":771,"x_min":0,"x_max":0,"o":"m 707 40 l 707 851 b 657 900 707 878 683 900 b 607 851 629 900 607 878 l 607 583 l 164 583 l 164 851 b 114 900 164 878 142 900 b 64 851 86 900 64 878 l 64 40 b 114 -8 64 14 86 -8 b 164 40 142 -8 164 14 l 164 488 l 607 488 l 607 40 b 657 -8 607 14 629 -8 b 707 40 683 -8 707 14 z "},"I":{"ha":228,"x_min":0,"x_max":0,"o":"m 164 40 l 164 851 b 114 900 164 878 142 900 b 64 851 86 900 64 878 l 64 40 b 114 -8 64 14 86 -8 b 164 40 142 -8 164 14 z "},"J":{"ha":647,"x_min":0,"x_max":0,"o":"m 583 339 l 583 849 b 533 900 583 876 561 900 b 483 849 506 900 483 876 l 483 339 b 263 86 483 197 407 86 b 69 164 140 86 117 164 b 19 114 42 164 19 142 b 32 81 19 100 25 89 b 263 -14 86 18 185 -14 b 583 339 468 -14 583 149 z "},"K":{"ha":718,"x_min":0,"x_max":0,"o":"m 690 40 b 676 74 690 53 686 65 l 268 506 l 604 815 b 621 851 614 824 621 838 b 569 901 621 879 597 901 b 536 889 557 901 546 897 l 164 543 l 164 849 b 114 900 164 876 142 900 b 64 849 86 900 64 876 l 64 44 b 114 -6 64 17 86 -6 b 164 44 142 -6 164 17 l 164 468 l 604 6 b 640 -11 614 -6 626 -11 b 690 40 668 -11 690 13 z "},"L":{"ha":579,"x_min":0,"x_max":0,"o":"m 544 49 b 494 97 544 75 522 97 l 164 97 l 164 851 b 114 900 164 878 142 900 b 64 851 86 900 64 878 l 64 49 b 114 0 64 22 86 0 l 494 0 b 544 49 522 0 544 22 z "},"M":{"ha":1015,"x_min":0,"x_max":0,"o":"m 951 40 l 951 856 b 901 906 951 883 929 906 b 860 885 885 906 869 899 l 508 358 l 156 885 b 114 906 146 899 131 906 b 64 856 86 906 64 883 l 64 40 b 114 -10 64 13 86 -10 b 164 40 142 -10 164 13 l 164 692 l 467 240 b 508 218 475 226 492 218 b 549 240 524 218 540 226 l 851 692 l 851 40 b 901 -10 851 13 874 -10 b 951 40 929 -10 951 13 z "},"N":{"ha":785,"x_min":0,"x_max":0,"o":"m 721 39 l 721 851 b 671 900 721 878 699 900 b 621 851 643 900 621 878 l 621 200 l 156 881 b 114 903 146 894 131 903 b 64 854 86 903 64 881 l 64 39 b 114 -8 64 13 86 -8 b 164 39 142 -8 164 13 l 164 693 l 629 13 b 671 -8 638 -1 654 -8 b 721 39 699 -8 721 13 z "},"O":{"ha":886,"x_min":0,"x_max":0,"o":"m 851 549 b 531 907 851 729 742 907 b 32 344 246 907 32 594 b 354 -15 32 164 143 -15 b 851 549 639 -15 851 300 z m 751 549 b 354 82 751 343 576 82 b 132 344 207 82 132 210 b 531 810 132 550 307 810 b 751 549 678 810 751 683 z "},"P":{"ha":714,"x_min":0,"x_max":0,"o":"m 689 683 b 408 907 689 836 540 907 b 64 776 353 907 64 863 l 64 40 b 114 -8 64 14 86 -8 b 164 40 142 -8 164 14 l 164 299 b 689 683 356 326 689 446 z m 589 683 b 164 390 589 531 317 417 l 164 747 b 407 810 236 783 325 810 b 589 683 494 810 589 771 z "},"Q":{"ha":886,"x_min":0,"x_max":0,"o":"m 931 -40 b 915 -4 931 -26 925 -14 l 724 190 b 853 549 804 297 853 429 b 531 907 853 729 743 907 b 33 344 246 907 33 594 b 354 -15 33 164 143 -15 b 657 115 471 -15 574 38 l 844 -75 b 881 -90 856 -86 867 -90 b 931 -40 906 -90 931 -69 z m 753 549 b 654 260 753 454 715 347 l 582 333 b 546 347 572 343 558 347 b 511 333 533 347 521 343 b 496 297 500 324 496 311 b 511 263 496 285 501 272 l 588 185 b 354 82 522 122 442 82 b 133 344 208 82 133 210 b 531 810 133 550 308 810 b 753 549 678 810 753 683 z "},"R":{"ha":722,"x_min":0,"x_max":0,"o":"m 676 689 b 415 907 676 838 539 907 b 90 808 301 907 185 863 b 64 765 74 800 64 783 l 64 40 b 114 -10 64 13 86 -10 b 164 40 142 -10 164 13 l 164 735 b 413 807 240 775 329 807 b 576 688 496 807 576 771 b 263 469 576 547 392 493 b 219 419 239 465 219 446 b 232 386 219 407 224 394 l 578 6 b 615 -11 588 -4 601 -11 b 665 39 643 -11 665 11 b 651 74 665 51 660 64 l 361 393 b 676 689 504 426 676 517 z "},"S":{"ha":643,"x_min":0,"x_max":0,"o":"m 611 236 b 268 567 611 419 408 514 b 135 696 206 592 135 633 b 299 810 135 768 224 810 b 492 757 364 810 435 788 b 518 751 500 753 508 751 b 572 800 544 751 572 769 b 299 907 572 878 350 907 b 35 696 181 907 35 833 b 511 236 35 436 511 475 b 315 82 511 132 424 82 b 107 154 236 82 171 107 b 74 165 97 161 86 165 b 25 117 49 165 25 147 b 42 82 25 101 32 90 b 315 -15 106 18 229 -15 b 611 236 472 -15 611 72 z "},"T":{"ha":728,"x_min":0,"x_max":0,"o":"m 692 843 b 643 892 692 869 669 892 l 85 892 b 36 843 58 892 36 869 b 85 794 36 817 58 794 l 315 794 l 315 39 b 364 -10 315 13 338 -10 b 411 39 390 -10 411 13 l 411 794 l 643 794 b 692 843 669 794 692 817 z "},"U":{"ha":778,"x_min":0,"x_max":0,"o":"m 714 351 l 714 853 b 664 901 714 879 690 901 b 613 853 636 901 613 879 l 613 351 b 389 82 613 213 547 82 b 164 351 231 82 164 213 l 164 853 b 114 901 164 879 142 901 b 64 853 86 901 64 879 l 64 351 b 389 -15 64 165 163 -15 b 714 351 614 -15 714 165 z "},"V":{"ha":871,"x_min":0,"x_max":0,"o":"m 840 851 b 790 903 840 879 818 903 b 744 872 771 903 751 890 l 438 154 l 126 874 b 81 903 119 892 101 903 b 31 853 53 903 31 881 b 35 835 31 847 35 835 l 388 17 b 438 -17 396 -3 415 -17 b 488 17 458 -17 479 -4 l 836 832 b 840 851 839 839 840 846 z "},"W":{"ha":1271,"x_min":0,"x_max":0,"o":"m 1238 850 b 1188 901 1238 878 1215 901 b 1142 871 1168 901 1150 889 l 832 154 l 524 871 b 478 901 515 889 497 901 b 428 850 450 901 428 878 b 432 831 428 844 429 838 l 579 489 l 436 154 l 128 871 b 81 901 119 889 101 901 b 31 850 54 901 31 878 b 35 831 31 844 32 838 l 385 19 b 435 -15 393 0 411 -15 b 486 18 456 -15 476 -3 l 633 363 l 781 19 b 832 -15 789 0 807 -15 b 882 18 853 -15 874 -3 l 1233 831 b 1238 850 1236 838 1238 844 z "},"X":{"ha":808,"x_min":0,"x_max":0,"o":"m 772 39 b 763 67 772 49 768 58 l 463 488 l 704 825 b 713 853 710 833 713 843 b 665 901 713 879 692 901 b 626 881 650 901 635 893 l 404 569 l 183 879 b 144 900 174 892 160 900 b 96 851 118 900 96 878 b 106 824 96 842 100 832 l 344 488 l 46 67 b 36 39 40 58 36 49 b 85 -10 36 13 58 -10 b 124 10 100 -10 114 -3 l 404 404 l 685 10 b 724 -10 694 -3 708 -10 b 772 39 750 -10 772 13 z "},"Y":{"ha":775,"x_min":0,"x_max":0,"o":"m 750 851 b 700 903 750 879 728 903 b 660 882 685 903 669 894 l 392 515 l 114 882 b 75 901 106 894 90 901 b 24 851 47 901 24 879 b 35 821 24 840 28 829 l 343 414 l 343 40 b 393 -10 343 13 365 -10 b 443 40 421 -10 443 13 l 443 415 l 740 822 b 750 851 747 831 750 842 z "},"Z":{"ha":683,"x_min":0,"x_max":0,"o":"m 653 49 b 606 97 653 75 631 97 l 172 97 l 626 818 b 635 844 632 825 635 835 b 588 892 635 871 614 892 l 133 892 b 86 844 107 892 86 871 b 133 796 86 817 107 796 l 500 796 l 46 75 b 38 49 40 67 38 57 b 85 0 38 22 60 0 l 606 0 b 653 49 631 0 653 22 z "},"[":{"ha":317,"x_min":0,"x_max":0,"o":"m 310 -161 b 264 -112 310 -135 289 -112 l 90 -112 l 90 914 l 264 914 b 310 963 289 914 310 936 b 264 1011 310 989 289 1011 l 46 1011 b 0 963 21 1011 0 989 l 0 -161 b 46 -210 0 -189 21 -210 l 264 -210 b 310 -161 289 -210 310 -189 z "},"\\":{"ha":751,"x_min":0,"x_max":0,"o":"m 664 40 b 656 67 664 50 661 58 l 124 878 b 82 901 115 892 99 901 b 32 850 54 901 32 878 b 40 824 32 840 35 832 l 572 13 b 614 -11 581 -1 597 -11 b 664 40 642 -11 664 13 z "},"]":{"ha":319,"x_min":0,"x_max":0,"o":"m 321 -161 l 321 963 b 275 1011 321 989 300 1011 l 56 1011 b 11 963 31 1011 11 989 b 56 914 11 936 31 914 l 231 914 l 231 -112 l 56 -112 b 11 -161 31 -112 11 -135 b 56 -210 11 -189 31 -210 l 275 -210 b 321 -161 300 -210 321 -189 z "},"^":{"ha":669,"x_min":0,"x_max":0,"o":"m 640 415 b 633 439 640 424 638 432 l 375 878 b 335 901 367 893 351 901 b 293 878 318 901 301 893 l 36 439 b 29 415 32 432 29 424 b 76 368 29 390 50 368 b 118 392 93 368 110 378 l 335 761 l 551 392 b 592 368 560 378 575 368 b 640 415 618 368 640 390 z "},"_":{"ha":706,"x_min":0,"x_max":0,"o":"m 756 -129 b 706 -78 756 -101 733 -78 l 0 -78 b -50 -129 -28 -78 -50 -101 b 0 -179 -50 -156 -28 -179 l 706 -179 b 756 -129 733 -179 756 -156 z "},"`":{"ha":614,"x_min":0,"x_max":0,"o":"m 418 763 b 399 800 418 778 411 792 l 258 899 b 232 906 250 903 242 906 b 188 861 207 906 188 886 b 207 824 188 846 194 832 l 347 725 b 374 718 356 721 364 718 b 418 763 399 718 418 738 z "},"a":{"ha":700,"x_min":0,"x_max":0,"o":"m 649 36 l 649 328 b 346 600 649 513 529 600 b 83 525 269 600 144 578 b 64 489 72 515 64 506 b 113 443 64 458 88 443 b 142 451 122 443 133 446 b 344 510 207 492 268 510 b 539 410 432 510 510 485 b 24 135 378 403 24 347 b 229 -15 24 22 142 -15 b 551 97 346 -15 458 36 l 551 36 b 600 -10 551 11 574 -10 b 649 36 628 -10 649 11 z m 553 326 l 551 206 b 229 78 458 136 346 78 b 121 146 153 78 121 113 b 553 326 121 285 458 326 z "},"b":{"ha":715,"x_min":0,"x_max":0,"o":"m 693 378 b 421 599 693 535 554 599 b 149 531 326 599 232 569 l 149 851 b 100 900 149 878 126 900 b 51 851 74 900 51 878 l 51 39 b 104 -15 51 7 74 -15 l 108 -15 b 693 378 319 -8 693 117 z m 596 378 b 149 82 596 204 346 126 l 149 432 b 418 501 232 475 326 501 b 596 378 508 501 596 471 z "},"c":{"ha":699,"x_min":0,"x_max":0,"o":"m 665 122 b 618 169 665 146 646 169 b 593 163 610 169 603 167 b 304 79 475 103 379 79 b 121 204 215 79 121 117 b 621 507 121 388 426 489 b 664 553 650 510 664 531 b 615 600 664 575 647 600 b 610 599 614 600 611 600 b 24 206 385 581 24 456 b 303 -15 24 54 167 -15 b 640 81 403 -15 519 19 b 665 122 658 90 665 106 z "},"d":{"ha":711,"x_min":0,"x_max":0,"o":"m 660 40 l 660 853 b 611 903 660 881 638 903 b 563 853 585 903 563 881 l 563 600 b 24 192 353 567 24 460 b 261 -15 24 53 131 -15 b 563 90 368 -15 479 35 l 563 40 b 611 -8 563 14 585 -8 b 660 40 638 -8 660 14 z m 563 203 b 263 83 476 143 364 83 b 121 192 181 83 121 111 b 563 501 121 385 388 471 z "},"e":{"ha":726,"x_min":0,"x_max":0,"o":"m 703 469 b 521 599 703 568 597 599 b 24 221 310 599 24 457 b 294 -15 24 68 147 -15 b 639 86 400 -15 547 35 b 664 128 654 96 664 108 b 615 174 664 156 640 174 b 592 168 607 174 600 172 b 294 78 497 122 400 78 b 121 206 203 78 128 121 l 129 206 l 139 206 b 703 469 406 204 703 292 z m 606 460 b 135 286 606 381 385 290 b 521 507 193 424 357 507 b 606 460 576 507 606 486 z "},"f":{"ha":524,"x_min":0,"x_max":0,"o":"m 503 853 b 403 903 503 904 439 903 b 132 583 224 903 135 760 l 69 583 b 21 535 43 583 21 563 b 69 486 21 508 43 486 l 132 486 l 132 40 b 182 -8 132 14 154 -8 b 231 40 208 -8 231 14 l 231 486 l 401 486 b 450 535 428 486 450 508 b 401 583 450 563 428 583 l 231 583 b 401 806 232 713 286 806 l 403 806 b 447 801 417 806 431 804 b 457 801 450 801 453 801 b 503 853 488 801 503 828 z "},"g":{"ha":804,"x_min":0,"x_max":0,"o":"m 778 106 b 528 338 778 254 653 333 b 558 442 546 368 558 404 b 540 514 558 467 553 492 l 632 610 b 646 642 640 618 646 629 b 599 689 646 671 622 689 b 565 675 586 689 575 685 l 472 579 b 367 603 439 596 401 603 b 25 324 229 603 25 488 b 218 163 25 213 126 163 b 432 235 293 163 371 192 b 519 243 458 239 494 243 b 685 106 604 243 685 194 b 279 -161 685 -58 469 -161 b 136 -82 218 -161 136 -142 b 325 17 136 0 265 17 b 463 0 372 17 418 10 b 472 -1 467 0 469 -1 b 519 46 497 -1 519 19 b 483 92 519 69 503 86 b 326 110 433 106 376 110 b 43 -82 219 110 43 68 b 279 -254 43 -214 181 -254 b 778 106 490 -254 778 -128 z m 465 442 b 217 257 465 342 311 257 b 119 324 167 257 119 278 b 367 508 119 424 274 508 b 465 442 418 508 465 488 z "},"h":{"ha":651,"x_min":0,"x_max":0,"o":"m 600 38 l 600 296 b 365 599 600 501 508 599 b 149 503 283 599 207 561 l 149 851 b 100 900 149 878 128 900 b 51 851 74 900 51 878 l 51 39 b 100 -11 51 11 74 -11 b 149 39 128 -11 149 11 l 149 351 b 361 506 189 436 269 506 b 501 301 451 506 501 456 l 501 38 b 551 -11 501 11 524 -11 b 600 38 578 -11 600 11 z "},"i":{"ha":200,"x_min":0,"x_max":0,"o":"m 165 842 b 100 906 165 878 136 906 b 36 842 65 906 36 878 b 100 778 36 807 65 778 b 165 842 136 778 165 807 z m 150 38 l 150 546 b 100 594 150 572 128 594 b 51 546 74 594 51 572 l 51 38 b 100 -11 51 11 74 -11 b 150 38 128 -11 150 11 z "},"j":{"ha":210,"x_min":0,"x_max":0,"o":"m 174 842 b 110 906 174 878 144 906 b 44 842 74 906 44 878 b 110 778 44 807 74 778 b 174 842 144 778 174 807 z m 158 40 l 158 547 b 110 596 158 574 136 596 b 61 547 82 596 61 574 l 61 40 b -92 -150 61 -71 22 -150 b -157 -140 -114 -150 -135 -147 b -169 -139 -161 -140 -165 -139 b -219 -187 -196 -139 -219 -158 b -92 -249 -219 -246 -131 -249 b 158 40 79 -249 158 -121 z "},"k":{"ha":550,"x_min":0,"x_max":0,"o":"m 525 39 b 513 71 525 51 521 63 l 253 350 l 493 507 b 514 547 506 515 514 531 b 465 596 514 574 493 596 b 439 588 457 596 447 593 l 149 396 l 149 851 b 100 901 149 879 126 901 b 51 851 74 901 51 879 l 51 39 b 100 -10 51 13 74 -10 b 149 39 126 -10 149 13 l 149 321 l 440 6 b 476 -11 450 -4 463 -11 b 525 39 503 -11 525 13 z "},"l":{"ha":200,"x_min":0,"x_max":0,"o":"m 149 39 l 149 851 b 100 901 149 879 126 901 b 51 851 74 901 51 879 l 51 39 b 100 -10 51 13 74 -10 b 149 39 126 -10 149 13 z "},"m":{"ha":1072,"x_min":0,"x_max":0,"o":"m 1021 39 l 1021 296 b 786 599 1021 503 929 599 b 553 474 701 599 610 554 b 350 599 514 560 442 599 b 149 504 269 599 203 561 l 149 544 b 100 594 149 572 128 594 b 51 544 74 594 51 572 l 51 40 b 100 -10 51 13 74 -10 b 149 40 128 -10 149 13 l 149 351 b 347 506 189 438 256 506 b 488 301 438 506 488 456 l 488 39 b 536 -10 488 13 510 -10 b 585 39 563 -10 585 13 l 585 296 b 582 358 585 315 585 340 b 783 506 624 440 693 506 b 924 301 872 506 924 456 l 924 39 b 972 -10 924 13 944 -10 b 1021 39 999 -10 1021 13 z "},"n":{"ha":651,"x_min":0,"x_max":0,"o":"m 600 39 l 600 296 b 365 599 600 503 508 599 b 149 503 283 599 207 561 l 149 544 b 100 594 149 572 128 594 b 51 544 74 594 51 572 l 51 40 b 100 -10 51 13 74 -10 b 149 40 128 -10 149 13 l 149 353 b 361 507 189 438 269 507 b 501 303 451 507 501 457 l 501 39 b 551 -10 501 13 524 -10 b 600 39 578 -10 600 13 z "},"o":{"ha":643,"x_min":0,"x_max":0,"o":"m 619 378 b 407 599 619 496 544 599 b 24 207 200 599 24 392 b 236 -15 24 89 99 -15 b 619 378 443 -15 619 193 z m 522 378 b 236 78 522 243 383 78 b 121 207 160 78 121 135 b 407 507 121 343 258 507 b 522 378 483 507 522 450 z "},"p":{"ha":717,"x_min":0,"x_max":0,"o":"m 693 383 b 422 600 693 538 554 600 b 76 496 313 600 171 551 b 51 453 61 486 51 472 l 51 -199 b 100 -247 51 -225 74 -247 b 149 -199 126 -247 149 -225 l 149 -14 b 693 383 371 17 693 140 z m 596 383 b 149 78 596 226 379 128 l 149 424 b 421 503 232 467 329 503 b 596 383 508 503 596 474 z "},"q":{"ha":739,"x_min":0,"x_max":0,"o":"m 688 -200 l 688 547 b 636 600 688 578 667 601 l 632 600 b 24 197 418 593 24 475 b 269 -15 24 54 142 -15 b 590 96 379 -15 501 33 l 590 -200 b 639 -249 590 -226 613 -249 b 688 -200 667 -249 688 -226 z m 590 207 b 271 83 499 144 379 83 b 121 197 189 83 121 115 b 590 496 121 328 279 446 z "},"r":{"ha":486,"x_min":0,"x_max":0,"o":"m 465 522 b 324 599 465 581 365 599 b 149 510 258 599 189 565 l 149 544 b 100 593 149 571 128 593 b 51 544 74 593 51 571 l 51 39 b 100 -10 51 13 74 -10 b 149 39 128 -10 149 13 l 149 343 b 324 501 175 424 239 501 b 389 479 346 501 368 493 b 417 471 397 474 407 471 b 465 522 444 471 465 497 z "},"s":{"ha":457,"x_min":0,"x_max":0,"o":"m 435 161 b 235 356 435 249 371 326 b 131 442 183 367 131 393 b 231 507 131 483 171 507 b 354 478 268 507 311 497 b 372 474 360 475 365 474 b 414 501 389 474 406 483 b 418 521 417 508 418 515 b 225 600 418 585 263 600 b 39 438 136 600 39 547 b 215 265 39 338 132 285 b 343 156 317 242 343 201 b 236 79 343 121 308 79 b 99 140 181 79 125 104 b 64 158 89 153 76 158 b 17 111 40 158 17 136 b 26 83 17 101 19 92 b 236 -15 72 24 154 -15 b 435 161 333 -15 435 43 z "},"t":{"ha":492,"x_min":0,"x_max":0,"o":"m 468 42 b 419 86 468 69 444 86 b 369 82 403 86 386 82 b 229 251 265 82 229 126 l 229 488 l 399 488 b 447 536 425 488 447 510 b 399 585 447 564 425 585 l 229 585 l 229 796 b 179 846 229 824 207 846 b 131 796 153 846 131 824 l 131 585 l 69 585 b 21 536 42 585 21 564 b 69 488 21 510 42 488 l 131 488 l 131 251 b 371 -15 131 76 204 -15 b 468 42 431 -15 468 -1 z "},"u":{"ha":651,"x_min":0,"x_max":0,"o":"m 600 40 l 600 546 b 551 594 600 572 578 594 b 501 546 524 594 501 572 l 501 232 b 289 78 463 149 382 78 b 149 283 199 78 149 129 l 149 546 b 100 594 149 572 128 594 b 51 546 74 594 51 572 l 51 289 b 286 -14 51 83 143 -14 b 501 82 367 -14 444 25 l 501 40 b 551 -8 501 14 524 -8 b 600 40 578 -8 600 14 z "},"v":{"ha":626,"x_min":0,"x_max":0,"o":"m 603 544 b 554 593 603 571 582 593 b 510 565 536 593 518 582 l 314 142 l 115 565 b 72 593 108 582 90 593 b 24 544 44 593 24 571 b 28 524 24 538 25 531 l 265 15 b 314 -15 274 -3 293 -15 b 363 14 333 -15 354 -6 l 599 524 b 603 544 601 531 603 538 z "},"w":{"ha":994,"x_min":0,"x_max":0,"o":"m 971 544 b 922 593 971 571 950 593 b 878 565 904 593 886 582 l 685 154 l 543 567 b 496 600 536 586 517 600 b 450 567 476 600 457 586 l 308 154 l 115 565 b 72 593 108 582 90 593 b 24 544 44 593 24 571 b 28 524 24 538 25 531 l 265 15 b 314 -17 275 -4 293 -17 b 365 19 336 -17 357 -3 l 496 401 l 628 21 b 678 -15 635 -1 656 -15 b 726 15 699 -15 718 -4 l 967 524 b 971 544 969 531 971 538 z "},"x":{"ha":542,"x_min":0,"x_max":0,"o":"m 514 39 b 506 68 514 50 511 60 l 329 315 l 471 517 b 481 544 478 525 481 535 b 432 593 481 571 458 593 b 392 572 415 593 401 585 l 269 400 l 147 574 b 108 593 139 586 124 593 b 60 544 81 593 60 572 b 68 517 60 535 63 525 l 210 315 l 36 67 b 26 39 31 58 26 49 b 75 -10 26 13 49 -10 b 115 11 92 -10 107 -3 l 269 231 l 425 11 b 465 -10 435 -1 450 -10 b 514 39 492 -10 514 13 z "},"y":{"ha":647,"x_min":0,"x_max":0,"o":"m 624 544 b 574 593 624 575 599 593 b 531 564 557 593 539 583 l 331 106 l 117 565 b 75 593 108 585 92 593 b 24 546 50 593 24 574 b 29 524 24 539 25 532 l 279 -15 b 125 -156 238 -110 196 -156 b 61 -146 107 -156 85 -151 b 46 -143 56 -144 51 -143 b 0 -192 18 -143 0 -167 b 35 -239 0 -212 10 -232 b 126 -253 68 -249 99 -253 b 376 -36 238 -253 314 -183 l 619 525 b 624 544 622 532 624 539 z "},"z":{"ha":572,"x_min":0,"x_max":0,"o":"m 546 49 b 497 97 546 75 525 97 l 179 97 l 510 504 b 521 536 517 514 521 525 b 472 585 521 563 499 585 l 83 585 b 35 536 57 585 35 563 b 83 486 35 508 57 486 l 369 486 l 39 79 b 28 49 32 71 28 60 b 76 0 28 22 50 0 l 497 0 b 546 49 525 0 546 22 z "},"{":{"ha":483,"x_min":0,"x_max":0,"o":"m 474 -160 b 428 -112 474 -135 454 -112 l 407 -112 b 342 -111 385 -112 363 -112 b 207 21 260 -106 207 -81 b 233 197 207 79 219 139 b 243 278 239 224 243 250 b 189 401 243 332 229 375 b 243 525 229 428 243 469 b 233 606 243 553 239 579 b 207 782 219 664 207 724 b 271 900 207 853 233 885 b 396 915 306 914 354 915 l 428 915 b 474 963 454 915 474 936 b 428 1010 474 989 454 1010 b 115 782 275 1010 115 996 b 144 583 115 714 129 647 b 151 525 149 564 151 544 b 40 444 151 467 103 444 b 0 401 21 444 0 424 b 40 358 0 379 21 358 b 151 272 118 358 151 329 b 144 219 151 257 149 239 b 115 21 129 156 115 89 b 428 -208 115 -194 275 -208 b 474 -160 454 -208 474 -186 z "},"|":{"ha":208,"x_min":0,"x_max":0,"o":"m 153 39 l 153 851 b 104 901 153 879 131 901 b 56 851 78 901 56 879 l 56 39 b 104 -10 56 13 78 -10 b 153 39 131 -10 153 13 z "},"}":{"ha":488,"x_min":0,"x_max":0,"o":"m 486 403 b 446 446 486 425 467 446 b 335 526 383 446 335 468 b 342 585 335 544 338 564 b 371 783 357 649 371 715 b 58 1011 371 997 211 1011 b 13 964 33 1011 13 990 b 58 917 13 938 33 917 l 79 917 b 144 915 101 917 124 917 b 279 783 226 908 279 885 b 253 607 279 725 267 665 b 243 525 247 581 243 553 b 299 403 243 471 257 428 b 243 279 257 376 243 333 b 253 197 243 251 247 224 b 279 22 267 139 279 81 b 215 -96 279 -50 253 -81 b 90 -112 181 -110 132 -112 l 58 -111 b 13 -160 33 -111 13 -133 b 58 -207 13 -186 33 -207 b 371 21 211 -207 371 -193 b 342 221 371 89 357 157 b 335 272 338 240 335 257 b 446 360 335 331 368 360 b 486 403 465 360 486 379 z "},"~":{"ha":815,"x_min":0,"x_max":0,"o":"m 792 556 b 742 603 792 582 767 603 b 703 585 728 603 714 597 b 646 522 685 563 668 540 b 567 493 619 501 593 493 b 246 601 468 493 364 601 b 233 601 242 601 238 601 b 39 438 140 594 74 510 b 32 415 35 431 32 422 b 83 367 32 388 57 367 b 124 392 99 367 114 375 b 240 504 150 435 185 500 b 246 504 242 504 244 504 b 567 396 332 504 438 396 b 583 396 572 396 578 396 b 782 526 665 403 739 463 b 792 556 788 536 792 546 z "},"Ä":{"ha":867,"x_min":0,"x_max":0,"o":"m 615 1024 b 553 1086 615 1058 588 1086 b 490 1024 518 1086 490 1058 b 553 961 490 989 518 961 b 615 1024 588 961 615 989 z m 376 1024 b 314 1086 376 1058 349 1086 b 253 1024 281 1086 253 1058 b 314 961 253 989 281 961 b 376 1024 349 961 376 989 z m 840 39 b 836 60 840 46 839 53 l 485 875 b 433 907 475 894 456 907 b 383 874 413 907 392 894 l 32 60 b 28 40 29 54 28 47 b 78 -10 28 13 50 -10 b 124 21 99 -10 117 1 l 236 281 l 632 281 l 744 19 b 790 -11 751 1 771 -11 b 840 39 818 -11 840 13 z m 589 381 l 279 381 l 433 739 z "},"Å":{"ha":867,"x_min":0,"x_max":0,"o":"m 840 39 b 836 60 840 46 839 53 l 496 847 b 604 993 554 874 604 924 b 453 1124 604 1078 526 1124 b 264 961 368 1124 264 1060 b 367 836 264 893 311 851 l 32 60 b 28 40 29 54 28 47 b 78 -10 28 13 50 -10 b 124 21 99 -10 117 1 l 236 281 l 632 281 l 744 19 b 790 -11 751 1 771 -11 b 840 39 818 -11 840 13 z m 514 996 b 414 913 514 949 457 913 b 354 958 382 913 354 929 b 453 1042 354 1006 410 1042 b 514 996 485 1042 514 1024 z m 589 381 l 279 381 l 433 739 z "},"Ç":{"ha":786,"x_min":0,"x_max":0,"o":"m 760 150 b 710 200 760 178 736 200 b 681 190 699 200 689 196 b 390 82 576 118 476 82 b 133 342 243 82 133 192 b 710 810 133 614 453 772 b 753 858 735 814 753 833 b 701 907 753 886 729 907 b 693 906 699 907 696 907 b 33 342 396 863 33 669 b 379 -15 33 142 182 -12 b 376 -29 378 -19 376 -24 b 418 -72 376 -53 394 -72 b 438 -69 425 -72 431 -69 b 454 -89 449 -69 454 -76 b 338 -190 454 -160 338 -125 b 379 -233 338 -214 357 -233 b 386 -232 382 -233 383 -232 b 538 -89 454 -219 538 -176 b 494 -3 538 -53 521 -21 b 740 111 575 15 657 54 b 760 150 753 121 760 135 z "},"É":{"ha":606,"x_min":0,"x_max":0,"o":"m 478 1110 b 433 1154 478 1133 457 1154 b 407 1146 424 1154 415 1151 l 265 1047 b 246 1011 254 1039 246 1025 b 292 965 246 986 267 965 b 317 974 300 965 310 968 l 458 1072 b 478 1110 471 1081 478 1094 z m 572 47 b 522 96 572 75 550 96 l 164 96 l 164 489 l 490 489 b 540 538 518 489 540 510 b 490 585 540 564 518 585 l 164 585 l 164 794 l 515 794 b 567 843 543 794 567 817 b 515 892 567 869 543 892 l 114 892 b 64 843 86 892 64 869 l 64 47 b 114 0 64 21 86 0 l 522 0 b 572 47 550 0 572 21 z "},"Ñ":{"ha":785,"x_min":0,"x_max":0,"o":"m 651 1072 b 607 1117 651 1097 632 1117 b 496 1056 568 1117 550 1056 b 411 1088 463 1056 438 1071 b 300 1124 382 1106 349 1124 b 153 1024 233 1124 182 1075 b 146 1001 149 1018 146 1010 b 192 956 146 976 167 956 b 301 1033 229 956 244 1033 b 381 1001 331 1033 356 1017 b 496 967 410 985 444 967 b 642 1043 554 967 607 1000 b 651 1072 647 1051 651 1061 z m 721 39 l 721 851 b 671 900 721 878 699 900 b 621 851 643 900 621 878 l 621 200 l 156 881 b 114 903 146 894 131 903 b 64 854 86 903 64 881 l 64 39 b 114 -8 64 13 86 -8 b 164 39 142 -8 164 13 l 164 693 l 629 13 b 671 -8 638 -1 654 -8 b 721 39 699 -8 721 13 z "},"Ö":{"ha":886,"x_min":0,"x_max":0,"o":"m 722 1024 b 661 1086 722 1058 694 1086 b 599 1024 626 1086 599 1058 b 661 961 599 989 626 961 b 722 1024 694 961 722 989 z m 485 1024 b 422 1086 485 1058 457 1086 b 360 1024 388 1086 360 1058 b 422 961 360 989 388 961 b 485 1024 457 961 485 989 z m 853 549 b 531 907 853 729 743 907 b 33 344 246 907 33 594 b 354 -15 33 164 143 -15 b 853 549 640 -15 853 300 z m 753 549 b 354 82 753 343 578 82 b 133 344 208 82 133 210 b 531 810 133 550 308 810 b 753 549 678 810 753 683 z "},"Ü":{"ha":778,"x_min":0,"x_max":0,"o":"m 569 1024 b 508 1086 569 1058 542 1086 b 446 1024 474 1086 446 1058 b 508 961 446 989 474 961 b 569 1024 542 961 569 989 z m 332 1024 b 269 1086 332 1058 304 1086 b 207 1024 235 1086 207 1058 b 269 961 207 989 235 961 b 332 1024 304 961 332 989 z m 714 351 l 714 853 b 664 901 714 879 690 901 b 613 853 636 901 613 879 l 613 351 b 389 82 613 213 547 82 b 164 351 231 82 164 213 l 164 853 b 114 901 164 879 142 901 b 64 853 86 901 64 879 l 64 351 b 389 -15 64 165 163 -15 b 714 351 614 -15 714 165 z "},"á":{"ha":700,"x_min":0,"x_max":0,"o":"m 493 861 b 447 906 493 886 472 906 b 422 899 439 906 429 903 l 281 800 b 261 763 268 792 261 778 b 306 718 261 738 282 718 b 332 725 315 718 324 721 l 474 824 b 493 861 485 832 493 846 z m 649 36 l 649 328 b 346 600 649 513 529 600 b 83 525 269 600 144 578 b 64 489 72 515 64 506 b 113 443 64 458 88 443 b 142 451 122 443 133 446 b 344 510 207 492 268 510 b 539 410 432 510 510 485 b 24 135 378 403 24 347 b 229 -15 24 22 142 -15 b 551 97 346 -15 458 36 l 551 36 b 600 -10 551 11 574 -10 b 649 36 628 -10 649 11 z m 553 326 l 551 206 b 229 78 458 136 346 78 b 121 146 153 78 121 113 b 553 326 121 285 458 326 z "},"à":{"ha":700,"x_min":0,"x_max":0,"o":"m 442 763 b 422 800 442 778 435 792 l 281 899 b 256 906 274 903 264 906 b 210 861 231 906 210 886 b 229 824 210 846 217 832 l 371 725 b 396 718 378 721 388 718 b 442 763 421 718 442 738 z m 649 36 l 649 328 b 346 600 649 513 529 600 b 83 525 269 600 144 578 b 64 489 72 515 64 506 b 113 443 64 458 88 443 b 142 451 122 443 133 446 b 344 510 207 492 268 510 b 539 410 432 510 510 485 b 24 135 378 403 24 347 b 229 -15 24 22 142 -15 b 551 97 346 -15 458 36 l 551 36 b 600 -10 551 11 574 -10 b 649 36 628 -10 649 11 z m 553 326 l 551 206 b 229 78 458 136 346 78 b 121 146 153 78 121 113 b 553 326 121 285 458 326 z "},"â":{"ha":700,"x_min":0,"x_max":0,"o":"m 522 764 b 503 803 522 779 515 794 l 353 900 b 328 907 344 906 336 907 b 303 900 319 907 311 906 l 151 803 b 131 764 139 794 131 779 b 175 719 131 739 151 719 b 200 726 185 719 193 722 l 328 808 l 453 726 b 478 719 461 722 469 719 b 522 764 503 719 522 740 z m 649 36 l 649 328 b 346 600 649 513 529 600 b 83 525 269 600 144 578 b 64 489 72 515 64 506 b 113 443 64 458 88 443 b 142 451 122 443 133 446 b 344 510 207 492 268 510 b 539 410 432 510 510 485 b 24 135 378 403 24 347 b 229 -15 24 22 142 -15 b 551 97 346 -15 458 36 l 551 36 b 600 -10 551 11 574 -10 b 649 36 628 -10 649 11 z m 553 326 l 551 206 b 229 78 458 136 346 78 b 121 146 153 78 121 113 b 553 326 121 285 458 326 z "},"ä":{"ha":700,"x_min":0,"x_max":0,"o":"m 525 839 b 463 901 525 872 497 901 b 400 839 428 901 400 872 b 463 776 400 804 428 776 b 525 839 497 776 525 804 z m 286 839 b 224 901 286 872 258 901 b 163 839 190 901 163 872 b 224 776 163 804 190 776 b 286 839 258 776 286 804 z m 649 36 l 649 328 b 346 600 649 513 529 600 b 83 525 269 600 144 578 b 64 489 72 515 64 506 b 113 443 64 458 88 443 b 142 451 122 443 133 446 b 344 510 207 492 268 510 b 539 410 432 510 510 485 b 24 135 378 403 24 347 b 229 -15 24 22 142 -15 b 551 97 346 -15 458 36 l 551 36 b 600 -10 551 11 574 -10 b 649 36 628 -10 649 11 z m 553 326 l 551 206 b 229 78 458 136 346 78 b 121 146 153 78 121 113 b 553 326 121 285 458 326 z "},"ã":{"ha":700,"x_min":0,"x_max":0,"o":"m 582 856 b 538 901 582 881 563 901 b 426 840 499 901 481 840 b 342 872 393 840 368 856 b 231 907 313 889 279 907 b 83 808 164 907 113 858 b 76 785 79 801 76 793 b 122 739 76 760 97 739 b 232 818 160 739 175 818 b 311 786 263 818 288 800 b 426 750 340 768 375 750 b 572 828 485 750 538 783 b 582 856 578 835 582 844 z m 649 36 l 649 328 b 346 600 649 513 529 600 b 83 525 269 600 144 578 b 64 489 72 515 64 506 b 113 443 64 458 88 443 b 142 451 122 443 133 446 b 344 510 207 492 268 510 b 539 410 432 510 510 485 b 24 135 378 403 24 347 b 229 -15 24 22 142 -15 b 551 97 346 -15 458 36 l 551 36 b 600 -10 551 11 574 -10 b 649 36 628 -10 649 11 z m 553 326 l 551 206 b 229 78 458 136 346 78 b 121 146 153 78 121 113 b 553 326 121 285 458 326 z "},"å":{"ha":700,"x_min":0,"x_max":0,"o":"m 488 832 b 338 963 488 917 410 963 b 147 800 251 963 147 900 b 297 669 147 714 225 669 b 488 832 383 669 488 732 z m 649 36 l 649 328 b 346 600 649 513 529 600 b 83 525 269 600 144 578 b 64 489 72 515 64 506 b 113 443 64 458 88 443 b 142 451 122 443 133 446 b 344 510 207 492 268 510 b 539 410 432 510 510 485 b 24 135 378 403 24 347 b 229 -15 24 22 142 -15 b 551 97 346 -15 458 36 l 551 36 b 600 -10 551 11 574 -10 b 649 36 628 -10 649 11 z m 397 835 b 297 751 397 788 342 751 b 238 797 265 751 238 769 b 338 881 238 844 293 881 b 397 835 368 881 397 863 z m 553 326 l 551 206 b 229 78 458 136 346 78 b 121 146 153 78 121 113 b 553 326 121 285 458 326 z "},"ç":{"ha":699,"x_min":0,"x_max":0,"o":"m 665 122 b 618 169 665 146 646 169 b 593 163 610 169 603 167 b 304 79 475 103 379 79 b 121 204 215 79 121 117 b 621 507 121 388 426 489 b 664 553 650 510 664 531 b 615 600 664 575 647 600 b 610 599 613 600 611 600 b 24 206 385 581 24 456 b 289 -14 24 60 157 -10 b 286 -29 288 -19 286 -24 b 328 -72 286 -53 304 -72 b 347 -69 335 -72 340 -69 b 364 -89 358 -69 364 -76 b 247 -190 364 -160 247 -125 b 289 -233 247 -214 267 -233 b 296 -232 292 -233 293 -232 b 447 -89 363 -219 447 -176 b 406 -4 447 -54 431 -22 b 640 81 479 11 558 39 b 665 122 658 90 665 106 z "},"é":{"ha":726,"x_min":0,"x_max":0,"o":"m 560 861 b 515 906 560 886 539 906 b 489 899 506 906 497 903 l 347 800 b 328 763 336 792 328 778 b 374 718 328 738 349 718 b 399 725 382 718 392 721 l 540 824 b 560 861 553 832 560 846 z m 703 469 b 521 599 703 568 597 599 b 24 221 310 599 24 457 b 294 -15 24 68 147 -15 b 639 86 400 -15 547 35 b 664 128 654 96 664 108 b 615 174 664 156 640 174 b 592 168 607 174 600 172 b 294 78 497 121 400 78 b 121 206 203 78 128 121 l 129 206 l 139 206 b 703 469 406 204 703 292 z m 606 460 b 135 286 606 381 385 290 b 521 507 193 424 357 507 b 606 460 576 507 606 486 z "},"è":{"ha":726,"x_min":0,"x_max":0,"o":"m 508 763 b 489 800 508 778 501 792 l 349 899 b 322 906 340 903 332 906 b 278 861 297 906 278 886 b 297 824 278 846 285 832 l 439 725 b 464 718 446 721 454 718 b 508 763 489 718 508 738 z m 703 469 b 521 599 703 568 597 599 b 24 221 310 599 24 457 b 294 -15 24 68 147 -15 b 639 86 400 -15 547 35 b 664 128 654 96 664 108 b 615 174 664 156 640 174 b 592 168 607 174 600 172 b 294 78 497 121 400 78 b 121 206 203 78 128 121 l 129 206 l 139 206 b 703 469 406 204 703 292 z m 606 460 b 135 286 606 381 385 290 b 521 507 193 424 357 507 b 606 460 576 507 606 486 z "},"ê":{"ha":726,"x_min":0,"x_max":0,"o":"m 644 764 b 624 803 644 779 636 794 l 474 900 b 449 907 467 906 458 907 b 425 900 440 907 432 906 l 272 803 b 251 764 260 794 251 779 b 297 719 251 739 272 719 b 321 726 306 719 314 722 l 449 808 l 575 726 b 599 719 582 722 590 719 b 644 764 624 719 644 740 z m 703 469 b 521 599 703 568 597 599 b 24 221 310 599 24 457 b 294 -15 24 68 147 -15 b 639 86 400 -15 547 35 b 664 128 654 96 664 108 b 615 174 664 156 640 174 b 592 168 607 174 600 172 b 294 78 497 121 400 78 b 121 206 203 78 128 121 l 129 206 l 139 206 b 703 469 406 204 703 292 z m 606 460 b 135 286 606 381 385 290 b 521 507 193 424 357 507 b 606 460 576 507 606 486 z "},"ë":{"ha":726,"x_min":0,"x_max":0,"o":"m 646 839 b 583 901 646 872 618 901 b 521 839 549 901 521 872 b 583 776 521 804 549 776 b 646 839 618 776 646 804 z m 408 839 b 346 901 408 872 379 901 b 283 839 311 901 283 872 b 346 776 283 804 311 776 b 408 839 379 776 408 804 z m 703 469 b 521 599 703 568 597 599 b 24 221 310 599 24 457 b 294 -15 24 68 147 -15 b 639 86 400 -15 547 35 b 664 128 654 96 664 108 b 615 174 664 156 640 174 b 592 168 607 174 600 172 b 294 78 497 121 400 78 b 121 206 203 78 128 121 l 129 206 l 139 206 b 703 469 406 204 703 292 z m 606 460 b 135 286 606 381 385 290 b 521 507 193 424 357 507 b 606 460 576 507 606 486 z "},"í":{"ha":200,"x_min":0,"x_max":0,"o":"m 240 861 b 196 906 240 886 221 906 b 171 899 186 906 178 903 l 29 800 b 10 763 17 792 10 778 b 54 718 10 738 29 718 b 81 725 64 718 72 721 l 222 824 b 240 861 233 832 240 846 z m 149 38 l 149 546 b 100 594 149 572 126 594 b 51 546 74 594 51 572 l 51 38 b 100 -11 51 11 74 -11 b 149 38 126 -11 149 11 z "},"ì":{"ha":200,"x_min":0,"x_max":0,"o":"m 190 763 b 171 800 190 778 183 792 l 31 899 b 4 906 22 903 14 906 b -40 861 -21 906 -40 886 b -21 824 -40 846 -33 832 l 119 725 b 146 718 128 721 136 718 b 190 763 171 718 190 738 z m 149 38 l 149 546 b 100 594 149 572 126 594 b 51 546 74 594 51 572 l 51 38 b 100 -11 51 11 74 -11 b 149 38 126 -11 149 11 z "},"î":{"ha":200,"x_min":0,"x_max":0,"o":"m 296 764 b 275 803 296 779 289 794 l 125 900 b 101 907 118 906 110 907 b 76 900 93 907 85 906 l -75 803 b -96 764 -89 794 -96 779 b -51 719 -96 739 -75 719 b -26 726 -42 719 -33 722 l 101 808 l 226 726 b 251 719 233 722 243 719 b 296 764 276 719 296 740 z m 149 38 l 149 546 b 100 594 149 572 126 594 b 51 546 74 594 51 572 l 51 38 b 100 -11 51 11 74 -11 b 149 38 126 -11 149 11 z "},"ï":{"ha":200,"x_min":0,"x_max":0,"o":"m 268 839 b 206 901 268 872 240 901 b 143 839 171 901 143 872 b 206 776 143 804 171 776 b 268 839 240 776 268 804 z m 57 839 b -6 901 57 872 29 901 b -68 839 -40 901 -68 872 b -6 776 -68 804 -40 776 b 57 839 29 776 57 804 z m 149 38 l 149 546 b 100 594 149 572 126 594 b 51 546 74 594 51 572 l 51 38 b 100 -11 51 11 74 -11 b 149 38 126 -11 149 11 z "},"ñ":{"ha":651,"x_min":0,"x_max":0,"o":"m 569 856 b 524 901 569 881 549 901 b 413 840 485 901 468 840 b 328 872 379 840 356 856 b 217 907 299 889 267 907 b 71 808 151 907 100 858 b 64 785 67 801 64 793 b 108 739 64 760 83 739 b 219 818 147 739 161 818 b 297 786 249 818 274 800 b 413 750 326 768 361 750 b 558 828 472 750 524 783 b 569 856 565 835 569 844 z m 600 39 l 600 296 b 365 599 600 503 508 599 b 149 503 283 599 207 561 l 149 544 b 100 594 149 572 128 594 b 51 544 74 594 51 572 l 51 40 b 100 -10 51 13 74 -10 b 149 40 128 -10 149 13 l 149 353 b 361 507 189 438 269 507 b 501 303 451 507 501 457 l 501 39 b 551 -10 501 13 524 -10 b 600 39 578 -10 600 13 z "},"ó":{"ha":643,"x_min":0,"x_max":0,"o":"m 533 861 b 488 906 533 886 513 906 b 463 899 479 906 469 903 l 321 800 b 301 763 308 792 301 778 b 346 718 301 738 322 718 b 372 725 356 718 365 721 l 514 824 b 533 861 525 832 533 846 z m 619 378 b 407 599 619 496 544 599 b 24 207 200 599 24 392 b 236 -15 24 89 99 -15 b 619 378 443 -15 619 193 z m 522 378 b 236 78 522 243 383 78 b 121 207 160 78 121 135 b 407 507 121 343 258 507 b 522 378 483 507 522 450 z "},"ò":{"ha":643,"x_min":0,"x_max":0,"o":"m 468 763 b 449 800 468 778 461 792 l 308 899 b 282 906 300 903 292 906 b 238 861 257 906 238 886 b 257 824 238 846 244 832 l 397 725 b 424 718 406 721 414 718 b 468 763 449 718 468 738 z m 619 378 b 407 599 619 496 544 599 b 24 207 200 599 24 392 b 236 -15 24 89 99 -15 b 619 378 443 -15 619 193 z m 522 378 b 236 78 522 243 383 78 b 121 207 160 78 121 135 b 407 507 121 343 258 507 b 522 378 483 507 522 450 z "},"ô":{"ha":643,"x_min":0,"x_max":0,"o":"m 604 764 b 583 803 604 779 596 794 l 433 900 b 408 907 426 906 417 907 b 385 900 400 907 392 906 l 232 803 b 211 764 219 794 211 779 b 257 719 211 739 232 719 b 281 726 265 719 274 722 l 408 808 l 535 726 b 558 719 542 722 550 719 b 604 764 583 719 604 740 z m 619 378 b 407 599 619 496 544 599 b 24 207 200 599 24 392 b 236 -15 24 89 99 -15 b 619 378 443 -15 619 193 z m 522 378 b 236 78 522 243 383 78 b 121 207 160 78 121 135 b 407 507 121 343 258 507 b 522 378 483 507 522 450 z "},"ö":{"ha":643,"x_min":0,"x_max":0,"o":"m 578 839 b 517 901 578 872 550 901 b 454 839 482 901 454 872 b 517 776 454 804 482 776 b 578 839 550 776 578 804 z m 340 839 b 278 901 340 872 313 901 b 215 839 243 901 215 872 b 278 776 215 804 243 776 b 340 839 313 776 340 804 z m 619 378 b 407 599 619 496 544 599 b 24 207 200 599 24 392 b 236 -15 24 89 99 -15 b 619 378 443 -15 619 193 z m 522 378 b 236 78 522 243 383 78 b 121 207 160 78 121 135 b 407 507 121 343 258 507 b 522 378 483 507 522 450 z "},"õ":{"ha":643,"x_min":0,"x_max":0,"o":"m 622 856 b 578 901 622 881 603 901 b 467 840 539 901 521 840 b 382 872 433 840 410 856 b 271 907 353 889 321 907 b 124 808 204 907 153 858 b 118 785 121 801 118 793 b 163 739 118 760 138 739 b 274 818 200 739 215 818 b 351 786 303 818 328 800 b 467 750 381 768 415 750 b 613 828 525 750 578 783 b 622 856 618 835 622 844 z m 619 378 b 407 599 619 496 544 599 b 24 207 200 599 24 392 b 236 -15 24 89 99 -15 b 619 378 443 -15 619 193 z m 522 378 b 236 78 522 243 383 78 b 121 207 160 78 121 135 b 407 507 121 343 258 507 b 522 378 483 507 522 450 z "},"ú":{"ha":651,"x_min":0,"x_max":0,"o":"m 493 861 b 447 906 493 886 472 906 b 422 899 439 906 429 903 l 281 800 b 261 763 268 792 261 778 b 306 718 261 738 282 718 b 332 725 315 718 324 721 l 474 824 b 493 861 485 832 493 846 z m 600 40 l 600 546 b 551 594 600 572 578 594 b 501 546 524 594 501 572 l 501 232 b 289 78 463 149 382 78 b 149 283 199 78 149 129 l 149 546 b 100 594 149 572 128 594 b 51 546 74 594 51 572 l 51 289 b 286 -14 51 83 143 -14 b 501 82 367 -14 444 25 l 501 40 b 551 -8 501 14 524 -8 b 600 40 578 -8 600 14 z "},"ù":{"ha":651,"x_min":0,"x_max":0,"o":"m 374 763 b 354 800 374 778 367 792 l 214 899 b 188 906 206 903 197 906 b 143 861 163 906 143 886 b 163 824 143 846 150 832 l 303 725 b 329 718 311 721 319 718 b 374 763 354 718 374 738 z m 600 40 l 600 546 b 551 594 600 572 578 594 b 501 546 524 594 501 572 l 501 232 b 289 78 463 149 382 78 b 149 283 199 78 149 129 l 149 546 b 100 594 149 572 128 594 b 51 546 74 594 51 572 l 51 289 b 286 -14 51 83 143 -14 b 501 82 367 -14 444 25 l 501 40 b 551 -8 501 14 524 -8 b 600 40 578 -8 600 14 z "},"û":{"ha":651,"x_min":0,"x_max":0,"o":"m 522 763 b 503 801 522 778 515 793 l 353 899 b 328 906 344 904 336 906 b 303 899 319 906 311 904 l 151 801 b 131 763 139 793 131 778 b 175 718 131 738 151 718 b 200 725 185 718 193 721 l 328 807 l 453 725 b 478 718 461 721 469 718 b 522 763 503 718 522 739 z m 600 39 l 600 544 b 551 593 600 571 578 593 b 501 544 524 593 501 571 l 501 231 b 289 76 463 147 382 76 b 149 282 199 76 149 128 l 149 544 b 100 593 149 571 128 593 b 51 544 74 593 51 571 l 51 288 b 286 -15 51 82 139 -15 b 501 81 367 -15 446 22 l 501 39 b 551 -10 501 13 524 -10 b 600 39 578 -10 600 13 z "},"ü":{"ha":651,"x_min":0,"x_max":0,"o":"m 525 839 b 463 901 525 872 497 901 b 400 839 428 901 400 872 b 463 776 400 804 428 776 b 525 839 497 776 525 804 z m 286 839 b 224 901 286 872 258 901 b 163 839 190 901 163 872 b 224 776 163 804 190 776 b 286 839 258 776 286 804 z m 600 40 l 600 546 b 551 594 600 572 578 594 b 501 546 524 594 501 572 l 501 232 b 289 78 463 149 382 78 b 149 283 199 78 149 129 l 149 546 b 100 594 149 572 128 594 b 51 546 74 594 51 572 l 51 289 b 286 -14 51 83 143 -14 b 501 82 367 -14 444 25 l 501 40 b 551 -8 501 14 524 -8 b 600 40 578 -8 600 14 z "},"†":{"ha":310,"x_min":0,"x_max":0,"o":"m 289 754 b 244 803 289 781 269 803 l 188 803 l 188 858 b 143 907 188 886 168 907 b 99 858 119 907 99 886 l 99 803 l 44 803 b 0 754 19 803 0 781 b 44 706 0 728 19 706 l 99 706 l 99 32 b 143 -17 99 6 119 -17 b 188 32 168 -17 188 6 l 188 706 l 244 706 b 289 754 269 706 289 728 z "},"°":{"ha":453,"x_min":0,"x_max":0,"o":"m 407 768 b 247 906 407 858 325 906 b 47 733 157 906 47 840 b 206 594 47 643 129 594 b 407 768 297 594 407 661 z m 310 769 b 206 682 310 721 251 682 b 144 731 172 682 144 700 b 247 818 144 778 201 818 b 310 769 281 818 310 799 z "},"¢":{"ha":699,"x_min":0,"x_max":0,"o":"m 649 303 b 603 350 649 326 629 350 b 579 344 596 350 588 349 b 304 258 467 283 376 258 b 129 386 219 258 129 297 b 606 693 129 572 419 675 b 646 739 633 696 646 718 b 600 788 646 764 631 788 b 594 788 599 788 596 788 b 399 747 535 782 467 768 l 399 853 b 351 899 399 878 378 899 b 306 853 326 899 306 878 l 306 711 b 36 388 163 647 36 540 b 303 164 36 233 174 164 l 306 164 l 306 36 b 351 -11 306 11 326 -11 b 399 36 378 -11 399 11 l 399 174 b 624 261 469 189 544 218 b 649 303 642 271 649 286 z "},"£":{"ha":714,"x_min":0,"x_max":0,"o":"m 675 49 b 628 97 675 75 654 97 l 235 97 b 286 303 268 164 286 221 b 256 457 286 367 275 399 l 438 457 b 486 506 464 457 486 479 b 438 554 486 532 464 554 l 229 554 b 215 640 222 583 215 610 b 414 810 215 768 283 810 b 608 765 482 810 544 792 b 626 761 614 763 621 761 b 674 810 651 761 674 781 b 646 854 674 831 663 846 b 414 906 582 886 486 906 b 121 640 238 906 121 828 b 132 554 121 610 125 583 l 71 554 b 24 506 44 554 24 532 b 71 457 24 479 44 457 l 156 457 b 192 303 174 400 192 365 b 114 76 192 210 165 156 b 104 49 108 68 104 60 b 153 0 104 22 126 0 l 628 0 b 675 49 654 0 675 22 z "},"§":{"ha":451,"x_min":0,"x_max":0,"o":"m 432 757 b 222 906 432 817 328 906 b 189 903 211 906 200 904 b 38 757 114 888 53 831 b 33 718 35 744 33 731 b 94 575 33 667 54 618 b 24 399 49 529 24 467 l 24 397 b 247 49 24 274 107 143 b 324 -67 299 13 324 -28 b 322 -85 324 -72 322 -79 b 247 -156 314 -119 283 -149 b 228 -158 240 -157 233 -158 b 69 -58 147 -158 119 -58 b 43 -68 61 -58 53 -61 b 22 -104 29 -76 22 -90 b 232 -253 22 -164 126 -253 b 265 -249 243 -253 254 -251 b 417 -104 340 -235 401 -176 b 421 -65 419 -92 421 -78 b 360 78 421 -14 400 35 b 431 254 406 124 431 186 l 431 256 b 207 604 431 381 347 510 b 131 719 156 640 131 681 b 133 738 131 725 132 732 b 207 808 140 774 171 801 b 228 811 214 810 221 811 b 385 711 307 811 336 711 b 411 721 393 711 401 714 b 432 757 425 729 432 743 z m 333 254 b 285 139 333 208 315 168 b 122 397 181 217 122 314 l 122 399 b 169 514 122 444 139 485 b 333 256 275 436 332 340 z "},"•":{"ha":332,"x_min":0,"x_max":0,"o":"m 306 390 b 167 531 306 468 243 531 b 26 390 89 531 26 468 b 167 251 26 314 89 251 b 306 390 243 251 306 314 z "},"¶":{"ha":728,"x_min":0,"x_max":0,"o":"m 663 38 l 663 763 b 638 803 663 779 653 796 b 292 904 538 857 411 904 b 21 685 161 904 21 835 b 303 363 21 529 175 417 l 303 38 b 351 -8 303 13 325 -8 b 400 38 379 -8 400 13 l 400 328 b 565 292 454 311 510 300 l 565 38 b 614 -8 565 13 588 -8 b 663 38 640 -8 663 13 z m 565 388 b 400 426 510 396 454 408 l 400 796 b 565 733 457 782 513 760 z m 303 467 b 118 685 215 513 118 592 b 290 810 118 772 203 810 l 293 810 l 303 810 z "},"ß":{"ha":918,"x_min":0,"x_max":0,"o":"m 893 322 b 617 550 893 483 758 550 b 483 531 569 550 529 539 b 647 731 556 588 647 621 b 425 907 647 856 549 907 b 122 583 244 907 122 768 l 69 583 b 24 536 44 583 24 563 b 69 489 24 511 44 489 l 122 489 l 122 38 b 169 -10 122 11 143 -10 b 217 38 196 -10 217 11 l 217 588 b 425 813 217 722 290 813 b 553 731 515 813 553 783 b 360 507 553 649 360 600 b 457 435 360 447 422 435 b 615 456 511 435 563 456 b 799 322 717 456 799 421 b 440 76 799 179 574 76 b 356 139 394 76 356 97 b 464 225 356 193 408 225 b 531 214 488 225 508 221 b 544 213 536 213 540 213 b 592 260 569 213 592 231 b 560 304 592 282 578 297 b 464 319 531 315 493 319 b 261 139 364 319 261 253 b 440 -15 261 36 351 -15 b 893 322 615 -15 893 111 z "},"®":{"ha":1201,"x_min":0,"x_max":0,"o":"m 1165 507 b 683 906 1165 772 914 906 b 36 383 399 906 36 706 b 519 -15 36 119 288 -15 b 1165 507 804 -15 1165 185 z m 1071 508 b 519 79 1071 246 763 79 b 131 383 332 79 131 182 b 683 813 131 646 439 813 b 1071 508 869 813 1071 710 z m 831 653 b 796 697 831 672 821 690 b 719 707 771 704 746 707 b 550 638 657 707 594 685 l 550 644 b 503 692 550 669 529 692 b 454 644 476 692 454 669 l 454 201 b 503 154 454 175 476 154 b 550 201 529 154 550 175 l 550 403 b 717 614 550 519 611 614 b 771 606 733 614 751 611 b 785 604 776 604 781 604 b 831 653 814 604 831 629 z "},"©":{"ha":1201,"x_min":0,"x_max":0,"o":"m 1165 507 b 683 906 1165 772 914 906 b 36 383 399 906 36 706 b 519 -15 36 119 288 -15 b 1165 507 804 -15 1165 185 z m 1071 508 b 519 79 1071 246 763 79 b 131 383 332 79 131 182 b 683 813 131 646 439 813 b 1071 508 869 813 1071 710 z m 801 336 b 754 383 801 365 778 383 b 732 378 746 383 739 382 b 529 317 665 346 600 317 b 411 400 469 317 411 342 b 658 596 411 503 563 572 b 758 615 692 604 725 608 b 800 661 782 618 800 636 b 754 708 800 689 779 708 b 746 708 751 708 749 708 b 317 400 507 675 317 560 b 528 222 317 279 426 222 b 776 294 606 222 711 254 b 801 336 792 304 801 317 z "},"™":{"ha":985,"x_min":0,"x_max":0,"o":"m 935 611 l 935 735 b 807 904 935 842 871 893 b 776 907 797 907 788 907 b 664 860 735 907 693 892 b 550 907 635 890 592 907 b 468 883 521 907 492 900 b 426 907 460 897 444 907 b 379 863 400 907 379 888 l 379 611 b 426 567 379 586 400 567 b 474 611 451 567 474 586 l 474 764 b 546 818 488 797 513 818 b 561 817 551 818 557 818 b 613 735 592 811 613 785 l 613 611 b 660 567 613 586 633 567 b 707 611 686 567 707 586 l 707 735 b 704 771 707 747 707 760 b 776 818 719 801 749 818 b 840 735 810 818 840 793 l 840 611 b 888 567 840 586 861 567 b 935 611 914 567 935 586 z m 349 847 b 301 893 349 872 326 893 l 69 893 b 22 847 44 893 22 872 b 69 803 22 824 44 803 l 135 803 l 135 611 b 183 567 135 586 157 567 b 231 611 208 567 231 586 l 231 803 l 301 803 b 349 847 326 803 349 824 z "},"´":{"ha":614,"x_min":0,"x_max":0,"o":"m 415 861 b 371 906 415 886 396 906 b 344 899 361 906 353 903 l 204 800 b 185 763 192 792 185 778 b 229 718 185 738 204 718 b 254 725 239 718 247 721 l 396 824 b 415 861 408 832 415 846 z "},"¨":{"ha":614,"x_min":0,"x_max":0,"o":"m 488 839 b 426 901 488 872 460 901 b 364 839 392 901 364 872 b 426 776 364 804 392 776 b 488 839 460 776 488 804 z m 250 839 b 188 901 250 872 222 901 b 125 839 153 901 125 872 b 188 776 125 804 153 776 b 250 839 222 776 250 804 z "},"Æ":{"ha":1128,"x_min":0,"x_max":0,"o":"m 1076 49 b 1028 96 1076 75 1054 96 l 682 96 l 682 289 l 997 289 b 1046 338 1024 289 1046 310 b 997 385 1046 364 1024 385 l 682 385 l 682 794 l 1022 794 b 1071 843 1049 794 1071 817 b 1022 892 1071 869 1049 892 l 633 892 b 353 693 510 892 417 818 l 25 61 b 21 39 22 54 21 47 b 69 -10 21 13 42 -10 b 113 17 88 -10 104 1 l 253 289 l 585 289 l 585 49 b 633 0 585 21 606 0 l 1028 0 b 1076 49 1054 0 1076 21 z m 585 385 l 303 385 l 439 650 b 585 789 471 713 519 772 z "},"Ø":{"ha":886,"x_min":0,"x_max":0,"o":"m 893 944 b 844 990 893 974 869 990 b 808 974 832 990 818 986 l 708 853 b 531 907 661 886 601 907 b 33 344 246 907 33 594 b 100 118 33 264 56 182 l -7 -11 b -18 -42 -14 -21 -18 -31 b 29 -89 -18 -65 1 -89 b 67 -71 43 -89 57 -82 l 165 47 b 354 -15 214 8 278 -15 b 853 549 640 -15 853 299 b 778 788 853 635 828 721 l 882 914 b 893 944 889 922 893 933 z m 646 778 l 167 199 b 133 344 144 242 133 292 b 531 810 133 550 308 810 b 646 778 576 810 615 799 z m 753 549 b 354 82 753 343 578 82 b 228 124 303 82 261 97 l 711 708 b 753 549 739 663 753 607 z "},"¥":{"ha":765,"x_min":0,"x_max":0,"o":"m 729 854 b 681 901 729 881 707 901 b 643 882 667 901 651 894 l 386 529 l 122 882 b 85 901 114 894 99 901 b 36 853 58 901 36 879 b 46 824 36 842 40 832 l 340 431 l 340 385 l 240 385 b 193 336 214 385 193 363 b 240 288 193 310 214 288 l 340 288 l 340 236 l 240 236 b 193 189 214 236 193 215 b 240 140 193 163 214 140 l 340 140 l 340 38 b 388 -10 340 11 361 -10 b 436 38 414 -10 436 11 l 436 140 l 525 140 b 572 189 551 140 572 163 b 525 236 572 215 551 236 l 436 236 l 436 288 l 525 288 b 572 336 551 288 572 310 b 525 385 572 363 551 385 l 436 385 l 436 432 l 719 825 b 729 854 726 833 729 843 z "},"µ":{"ha":643,"x_min":0,"x_max":0,"o":"m 581 269 l 581 547 b 533 594 581 574 560 594 b 488 547 508 594 488 574 l 488 269 b 356 72 488 121 440 72 b 154 221 268 72 192 139 l 154 547 b 108 594 154 574 135 594 b 63 547 83 594 63 574 l 63 -204 b 108 -251 63 -229 83 -251 b 154 -204 135 -251 154 -229 l 154 69 b 358 -22 208 14 282 -22 b 581 269 493 -22 581 71 z "},"ª":{"ha":682,"x_min":0,"x_max":0,"o":"m 633 558 l 633 858 b 583 906 633 886 611 906 l 582 906 b 43 646 324 903 43 800 b 265 506 43 531 190 506 b 542 571 358 506 461 533 l 542 569 b 588 514 542 540 550 514 b 633 558 613 514 633 533 z m 542 663 b 264 596 456 626 354 596 b 136 646 229 596 136 599 b 542 811 136 704 268 783 z "},"º":{"ha":626,"x_min":0,"x_max":0,"o":"m 592 758 b 393 907 592 868 478 907 b 36 649 264 907 36 811 b 235 500 36 539 149 500 b 592 758 364 500 592 596 z m 499 758 b 235 590 499 664 325 590 b 128 650 194 590 128 600 b 393 817 128 744 301 817 b 499 758 432 817 499 808 z "},"æ":{"ha":1199,"x_min":0,"x_max":0,"o":"m 1163 468 b 979 600 1163 569 1051 600 b 654 501 872 600 743 564 b 418 599 600 574 503 599 b 83 497 311 599 174 554 b 60 457 69 489 60 475 b 107 410 60 432 81 410 b 129 415 115 410 122 413 b 418 506 222 463 317 506 b 583 439 482 506 553 488 b 522 350 558 413 539 382 b 393 360 481 357 436 360 b 36 139 272 360 36 311 b 233 -15 36 29 144 -15 b 539 82 339 -15 451 24 b 756 -15 590 14 674 -15 b 1093 88 860 -15 1006 31 b 1117 126 1106 96 1117 108 b 1068 174 1117 153 1094 174 b 1046 168 1060 174 1053 171 b 757 78 954 121 858 78 b 588 222 663 78 588 126 b 589 253 588 232 588 242 b 697 249 625 250 661 249 b 1163 468 826 249 1163 288 z m 1068 468 b 696 340 1068 357 769 340 b 628 343 674 340 650 342 b 979 507 699 447 851 507 b 1068 468 1006 507 1068 504 z m 499 168 b 233 78 424 114 326 78 b 132 139 183 78 132 96 b 394 267 132 244 317 267 b 494 260 428 267 461 264 b 492 224 493 247 492 235 b 499 168 492 204 494 186 z "},"ø":{"ha":643,"x_min":0,"x_max":0,"o":"m 647 629 b 633 661 647 640 643 653 b 607 671 625 668 615 671 b 575 657 594 671 583 667 l 506 578 b 407 599 478 592 444 599 b 24 207 200 599 24 392 b 64 69 24 156 38 108 l -21 -28 b -31 -56 -28 -36 -31 -46 b -17 -87 -31 -67 -26 -79 b 11 -97 -8 -94 1 -97 b 42 -83 22 -97 33 -92 l 125 13 b 236 -15 156 -4 193 -15 b 619 378 443 -15 619 193 b 571 525 619 433 603 486 l 638 603 b 647 629 644 610 647 619 z m 522 378 b 236 78 522 243 383 78 b 189 86 218 78 203 81 l 506 451 b 522 378 517 431 522 406 z m 440 503 l 131 146 b 121 207 124 164 121 185 b 407 507 121 343 258 507 b 440 503 419 507 431 506 z "},"¿":{"ha":650,"x_min":0,"x_max":0,"o":"m 522 832 b 457 899 522 868 493 899 b 392 832 421 899 392 868 b 457 767 392 796 421 767 b 522 832 493 767 522 796 z m 628 117 b 581 168 628 143 607 168 b 556 161 574 168 565 167 b 307 82 476 115 400 82 b 118 219 185 82 118 144 b 294 408 118 290 175 367 b 511 636 468 467 511 564 l 511 672 b 463 719 511 699 489 719 b 415 672 436 719 415 699 l 415 636 b 264 499 415 574 340 525 b 24 219 99 442 24 329 b 303 -15 24 96 124 -15 b 604 78 418 -15 508 22 b 628 117 621 88 628 103 z "},"¡":{"ha":201,"x_min":0,"x_max":0,"o":"m 167 832 b 101 899 167 868 138 899 b 36 832 65 899 36 868 b 101 767 36 796 65 767 b 167 832 138 767 167 796 z m 151 40 l 151 668 b 101 718 151 696 129 718 b 51 668 74 718 51 696 l 51 40 b 101 -10 51 13 74 -10 b 151 40 129 -10 151 13 z "},"ƒ":{"ha":632,"x_min":0,"x_max":0,"o":"m 619 854 b 526 906 619 906 561 906 b 268 583 346 906 268 743 l 160 583 b 113 536 135 583 113 563 b 160 488 113 508 135 488 l 267 488 l 267 297 b 104 81 267 179 225 81 b 57 85 88 81 72 85 b 8 36 31 85 8 64 b 103 -15 8 -15 68 -15 b 361 297 288 -15 361 133 l 363 488 l 540 488 b 588 536 567 488 588 508 b 540 583 588 563 567 583 l 363 583 b 525 810 363 701 406 810 b 572 806 542 810 557 806 b 619 854 599 806 619 828 z "},"Δ":{"ha":382,"x_min":0,"x_max":0,"o":"m 351 374 b 328 413 351 390 342 406 l 106 532 b 85 538 99 536 92 538 b 40 493 63 538 40 519 l 40 254 b 85 210 40 228 63 210 b 106 215 92 210 99 213 l 328 335 b 351 374 342 342 351 357 z "},"«":{"ha":588,"x_min":0,"x_max":0,"o":"m 567 550 b 518 599 567 581 543 599 b 482 582 506 599 492 594 l 289 367 b 278 333 281 357 278 346 b 289 301 278 322 282 311 l 482 86 b 518 69 492 75 504 69 b 567 118 542 69 567 89 b 554 150 567 131 563 142 l 392 333 l 554 518 b 567 550 563 526 567 539 z m 306 550 b 256 599 306 581 281 599 b 219 582 243 599 229 594 l 28 367 b 15 333 19 357 15 346 b 28 301 15 322 19 311 l 219 86 b 256 69 229 75 243 69 b 304 118 281 69 304 89 b 292 150 304 131 300 142 l 129 333 l 293 518 b 306 550 300 526 306 539 z "},"»":{"ha":588,"x_min":0,"x_max":0,"o":"m 572 333 b 561 367 572 346 569 357 l 368 582 b 332 599 358 594 344 599 b 283 550 307 599 283 581 b 296 518 283 539 288 526 l 458 333 l 296 150 b 283 118 288 142 283 131 b 332 69 283 89 308 69 b 368 86 346 69 358 75 l 561 301 b 572 333 568 311 572 321 z m 311 332 b 299 367 311 347 307 357 l 106 582 b 69 599 96 594 83 599 b 21 550 46 599 21 581 b 33 518 21 539 25 526 l 197 333 l 33 150 b 21 118 26 142 21 131 b 71 69 21 89 46 69 b 107 86 83 69 97 75 l 299 301 b 311 332 306 310 311 319 z "},"…":{"ha":556,"x_min":0,"x_max":0,"o":"m 518 58 b 453 125 518 94 489 125 b 388 58 417 125 388 94 b 453 -7 388 22 417 -7 b 518 58 489 -7 518 22 z m 344 58 b 279 125 344 94 315 125 b 214 58 243 125 214 94 b 279 -7 214 22 243 -7 b 344 58 315 -7 344 22 z m 169 58 b 104 125 169 94 140 125 b 39 58 68 125 39 94 b 104 -7 39 22 68 -7 b 169 58 140 -7 169 22 z "},"À":{"ha":867,"x_min":0,"x_max":0,"o":"m 524 1006 b 504 1042 524 1019 517 1033 l 363 1140 b 338 1149 356 1146 346 1149 b 292 1104 313 1149 292 1129 b 311 1067 292 1089 300 1075 l 453 968 b 478 960 460 963 469 960 b 524 1006 503 960 524 981 z m 840 39 b 836 60 840 46 839 53 l 485 875 b 433 907 475 894 456 907 b 383 874 413 907 392 894 l 32 60 b 28 40 29 54 28 47 b 78 -10 28 13 50 -10 b 124 21 99 -10 117 1 l 236 281 l 632 281 l 744 19 b 790 -11 751 1 771 -11 b 840 39 818 -11 840 13 z m 589 381 l 279 381 l 433 739 z "},"Ã":{"ha":867,"x_min":0,"x_max":0,"o":"m 692 1072 b 647 1117 692 1097 672 1117 b 536 1056 608 1117 590 1056 b 451 1088 503 1056 478 1071 b 340 1124 422 1106 389 1124 b 193 1024 274 1124 222 1075 b 186 1001 189 1018 186 1010 b 232 956 186 976 207 956 b 342 1033 269 956 285 1033 b 421 1001 372 1033 396 1017 b 536 967 450 985 485 967 b 682 1043 594 967 647 1000 b 692 1072 688 1051 692 1061 z m 840 39 b 836 60 840 46 839 53 l 485 875 b 433 907 475 894 456 907 b 383 874 413 907 392 894 l 32 60 b 28 40 29 54 28 47 b 78 -10 28 13 50 -10 b 124 21 99 -10 117 1 l 236 281 l 632 281 l 744 19 b 790 -11 751 1 771 -11 b 840 39 818 -11 840 13 z m 589 381 l 279 381 l 433 739 z "},"Õ":{"ha":886,"x_min":0,"x_max":0,"o":"m 800 1072 b 754 1117 800 1097 779 1117 b 643 1056 717 1117 699 1056 b 558 1088 610 1056 586 1071 b 449 1124 531 1106 497 1124 b 301 1024 382 1124 331 1075 b 294 1001 297 1018 294 1010 b 340 956 294 976 315 956 b 450 1033 378 956 393 1033 b 529 1001 479 1033 504 1017 b 644 967 557 985 593 967 b 789 1043 703 967 756 1000 b 800 1072 796 1051 800 1061 z m 853 549 b 531 907 853 729 743 907 b 33 344 246 907 33 594 b 354 -15 33 164 143 -15 b 853 549 640 -15 853 300 z m 753 549 b 354 82 753 343 578 82 b 133 344 208 82 133 210 b 531 810 133 550 308 810 b 753 549 678 810 753 683 z "},"Œ":{"ha":1199,"x_min":0,"x_max":0,"o":"m 1160 49 b 1111 97 1160 75 1138 97 l 732 97 l 731 222 b 829 488 785 304 817 392 l 1081 488 b 1129 536 1107 488 1129 510 b 1081 585 1129 563 1107 585 l 829 585 b 749 796 825 656 796 739 l 1106 796 b 1154 844 1132 796 1154 818 b 1106 893 1154 871 1132 893 l 683 893 b 649 876 668 893 657 886 b 519 904 608 896 564 904 b 36 343 243 904 36 593 b 349 -15 36 163 143 -15 b 635 108 457 -15 557 38 l 635 49 b 683 0 635 22 656 0 l 1111 0 b 1160 49 1138 0 1160 22 z m 735 536 b 349 81 735 338 558 81 b 133 343 206 81 133 207 b 519 808 133 549 304 808 b 735 536 669 808 735 674 z "},"œ":{"ha":1088,"x_min":0,"x_max":0,"o":"m 1050 472 b 872 599 1050 571 942 599 b 581 519 778 599 664 568 b 410 599 542 579 479 599 b 36 204 208 599 36 389 b 243 -15 36 85 111 -15 b 447 63 319 -15 390 17 b 651 -15 501 7 578 -15 b 985 88 757 -15 896 29 b 1008 128 999 96 1008 108 b 961 174 1008 153 988 174 b 939 168 953 174 944 171 b 651 78 847 122 753 78 b 514 128 600 78 547 92 b 579 232 540 160 563 194 b 1050 472 718 239 1050 294 z m 956 472 b 610 326 956 368 708 335 b 615 389 614 347 615 368 b 613 431 615 403 615 417 b 874 506 683 476 789 506 b 956 472 897 506 956 506 z m 521 389 b 243 78 521 254 385 78 b 131 204 168 78 131 132 b 410 506 131 340 265 506 b 521 389 485 506 521 460 z "},"–":{"ha":611,"x_min":0,"x_max":0,"o":"m 556 347 b 507 396 556 375 533 396 l 104 396 b 56 347 78 396 56 375 b 104 299 56 321 78 299 l 507 299 b 556 347 533 299 556 321 z "},"—":{"ha":804,"x_min":0,"x_max":0,"o":"m 749 347 b 700 396 749 375 726 396 l 104 396 b 56 347 78 396 56 375 b 104 299 56 321 78 299 l 700 299 b 749 347 726 299 749 321 z "},"“":{"ha":389,"x_min":0,"x_max":0,"o":"m 375 871 b 325 921 375 901 350 921 b 292 908 314 921 301 917 b 200 703 247 869 200 764 b 267 628 200 664 219 628 b 332 693 300 628 332 657 b 308 743 332 711 324 731 b 358 833 314 779 338 814 b 375 871 368 843 375 856 z m 190 871 b 140 921 190 901 165 921 b 107 908 129 921 117 917 b 15 703 63 869 15 764 b 82 628 15 664 35 628 b 147 693 115 628 147 657 b 124 743 147 711 139 731 b 174 833 129 779 153 814 b 190 871 183 843 190 856 z "},"”":{"ha":389,"x_min":0,"x_max":0,"o":"m 369 832 b 301 906 369 871 350 906 b 238 842 269 906 238 878 b 260 792 238 824 244 804 b 211 701 256 756 232 719 b 194 664 201 692 194 678 b 244 614 194 633 219 614 b 278 625 256 614 268 617 b 369 832 322 664 369 771 z m 185 832 b 117 906 185 871 165 906 b 53 842 85 906 53 878 b 75 792 53 824 60 804 b 26 701 71 756 47 719 b 10 664 17 692 10 678 b 60 614 10 633 35 614 b 93 625 71 614 83 617 b 185 832 138 664 185 771 z "},"‘":{"ha":203,"x_min":0,"x_max":0,"o":"m 190 871 b 140 921 190 901 165 921 b 107 908 129 921 117 917 b 15 703 63 869 15 764 b 82 628 15 664 35 628 b 147 693 115 628 147 657 b 124 743 147 711 139 731 b 174 833 129 779 153 814 b 190 871 183 843 190 856 z "},"’":{"ha":204,"x_min":0,"x_max":0,"o":"m 185 832 b 117 906 185 871 165 906 b 53 842 85 906 53 878 b 75 792 53 824 60 804 b 26 701 71 756 47 719 b 10 664 17 692 10 678 b 60 614 10 633 35 614 b 93 625 71 614 83 617 b 185 832 138 664 185 771 z "},"÷":{"ha":583,"x_min":0,"x_max":0,"o":"m 354 554 b 292 615 354 588 326 615 b 229 554 257 615 229 588 b 292 492 229 519 257 492 b 354 554 326 492 354 519 z m 560 381 b 510 432 560 408 538 432 l 74 432 b 24 381 46 432 24 408 b 74 331 24 354 46 331 l 510 331 b 560 381 538 331 560 354 z m 354 201 b 292 263 354 235 326 263 b 229 201 257 263 229 235 b 292 139 229 167 257 139 b 354 201 326 139 354 167 z "},"◊":{"ha":382,"x_min":0,"x_max":0,"o":"m 354 372 b 344 394 354 381 351 389 l 214 525 b 190 535 208 532 200 535 b 167 525 182 535 174 532 l 38 394 b 28 372 31 389 28 381 b 38 349 28 363 31 354 l 167 218 b 190 208 174 211 182 208 b 214 218 200 208 208 211 l 344 349 b 354 372 351 354 354 363 z "},"ÿ":{"ha":647,"x_min":0,"x_max":0,"o":"m 525 839 b 463 901 525 872 497 901 b 400 839 428 901 400 872 b 463 776 400 804 428 776 b 525 839 497 776 525 804 z m 286 839 b 224 901 286 872 258 901 b 163 839 190 901 163 872 b 224 776 163 804 190 776 b 286 839 258 776 286 804 z m 624 544 b 574 593 624 575 599 593 b 531 564 557 593 539 583 l 331 106 l 117 565 b 75 593 108 585 92 593 b 24 546 50 593 24 574 b 29 524 24 539 25 532 l 279 -15 b 125 -156 238 -110 196 -156 b 61 -146 107 -156 85 -151 b 46 -143 56 -144 51 -143 b 0 -192 18 -143 0 -167 b 35 -239 0 -212 10 -232 b 126 -253 68 -249 99 -253 b 376 -36 238 -253 314 -183 l 619 525 b 624 544 622 532 624 539 z "},"Ÿ":{"ha":775,"x_min":0,"x_max":0,"o":"m 569 1024 b 507 1086 569 1058 540 1086 b 444 1024 472 1086 444 1058 b 507 961 444 989 472 961 b 569 1024 540 961 569 989 z m 331 1024 b 268 1086 331 1058 303 1086 b 206 1024 233 1086 206 1058 b 268 961 206 989 233 961 b 331 1024 303 961 331 989 z m 750 851 b 700 903 750 879 728 903 b 660 882 685 903 669 894 l 392 515 l 114 882 b 75 901 106 894 90 901 b 24 851 47 901 24 879 b 35 821 24 840 28 829 l 343 414 l 343 40 b 393 -10 343 13 365 -10 b 443 40 421 -10 443 13 l 443 415 l 740 822 b 750 851 747 831 750 842 z "},"⁄":{"ha":797,"x_min":0,"x_max":0,"o":"m 781 854 b 733 901 781 883 757 901 b 697 883 719 901 707 896 l 21 67 b 10 38 13 58 10 47 b 57 -10 10 14 28 -10 b 93 7 71 -10 85 -4 l 769 824 b 781 854 776 832 781 843 z "},"‹":{"ha":326,"x_min":0,"x_max":0,"o":"m 306 550 b 256 599 306 581 281 599 b 219 582 243 599 229 594 l 28 367 b 15 333 19 357 15 346 b 28 301 15 322 19 311 l 219 86 b 256 69 229 75 243 69 b 304 118 281 69 304 89 b 292 150 304 131 300 142 l 129 333 l 293 518 b 306 550 300 526 306 539 z "},"›":{"ha":326,"x_min":0,"x_max":0,"o":"m 311 332 b 299 367 311 347 307 357 l 106 582 b 69 599 96 594 83 599 b 21 550 46 599 21 581 b 33 518 21 539 25 526 l 197 333 l 33 150 b 21 118 26 142 21 131 b 71 69 21 89 46 69 b 107 86 83 69 97 75 l 299 301 b 311 332 306 310 311 319 z "},"ﬁ":{"ha":672,"x_min":0,"x_max":0,"o":"m 625 774 b 399 906 625 844 525 906 b 142 585 224 906 149 736 l 69 585 b 24 538 44 585 24 564 b 69 490 24 513 43 490 l 142 490 l 142 38 b 188 -10 142 11 163 -10 b 233 38 213 -10 233 11 l 233 490 l 518 490 l 518 38 b 564 -8 518 13 539 -8 b 610 38 589 -8 610 13 l 610 538 b 560 585 610 568 583 585 l 235 585 b 399 811 240 696 286 811 b 503 783 456 811 479 801 b 503 775 503 781 503 778 b 564 713 503 740 528 713 b 625 774 600 713 625 742 z "},"ﬂ":{"ha":674,"x_min":0,"x_max":0,"o":"m 611 38 l 611 840 b 571 886 611 863 594 883 b 406 907 528 893 457 907 b 142 585 225 907 149 744 l 68 585 b 22 538 43 585 22 564 b 68 490 22 513 43 490 l 142 490 l 142 39 b 188 -8 142 14 163 -8 b 235 39 214 -8 235 14 l 235 490 l 392 490 b 438 538 417 490 438 513 b 392 585 438 564 417 585 l 235 585 b 407 813 240 704 286 813 b 518 799 444 813 482 804 l 518 38 b 565 -10 518 11 539 -10 b 611 38 590 -10 611 11 z "},"‡":{"ha":300,"x_min":0,"x_max":0,"o":"m 289 536 b 244 585 289 563 269 585 l 188 585 l 188 704 l 244 704 b 289 751 269 704 289 725 b 244 800 289 779 269 800 l 188 800 l 188 857 b 143 906 188 883 168 906 b 99 857 119 906 99 883 l 99 800 l 44 800 b 0 751 19 800 0 779 b 44 704 0 725 19 704 l 99 704 l 99 585 l 44 585 b 0 536 19 585 0 563 b 44 488 0 510 19 488 l 99 488 l 99 31 b 143 -18 99 4 119 -18 b 188 31 168 -18 188 4 l 188 488 l 244 488 b 289 536 269 488 289 510 z "},"·":{"ha":182,"x_min":0,"x_max":0,"o":"m 157 435 b 92 500 157 471 128 500 b 26 435 56 500 26 471 b 92 369 26 399 56 369 b 157 435 128 369 157 399 z "},"‚":{"ha":190,"x_min":0,"x_max":0,"o":"m 175 50 b 108 124 175 89 156 124 b 43 60 75 124 43 96 b 65 10 43 42 51 21 b 17 -93 61 -26 38 -74 b 0 -131 7 -103 0 -115 b 50 -181 0 -161 25 -181 b 83 -168 61 -181 74 -176 b 175 50 128 -129 175 -11 z "},"„":{"ha":376,"x_min":0,"x_max":0,"o":"m 363 50 b 296 124 363 89 343 124 b 231 60 263 124 231 96 b 253 10 231 42 239 21 b 204 -93 249 -26 225 -74 b 188 -131 194 -103 188 -115 b 238 -181 188 -161 213 -181 b 271 -168 249 -181 261 -176 b 363 50 315 -129 363 -11 z m 175 50 b 108 124 175 89 156 124 b 43 60 75 124 43 96 b 65 10 43 42 51 21 b 17 -93 61 -26 38 -74 b 0 -131 7 -103 0 -115 b 50 -181 0 -161 25 -181 b 83 -168 61 -181 74 -176 b 175 50 128 -129 175 -11 z "},"‰":{"ha":1239,"x_min":0,"x_max":0,"o":"m 1204 331 b 1069 482 1204 408 1160 482 b 900 399 1006 482 947 449 b 786 482 885 446 850 482 b 490 138 631 482 490 276 b 625 -15 490 58 535 -15 b 796 71 689 -15 749 19 b 907 -15 810 22 844 -15 b 1204 331 1064 -15 1204 192 z m 811 853 b 763 900 811 879 790 900 b 724 881 747 900 733 893 l 149 67 b 139 39 143 58 139 49 b 188 -10 139 11 161 -10 b 226 10 203 -10 218 -3 l 803 824 b 811 853 808 832 811 842 z m 468 756 b 333 907 468 833 424 907 b 36 563 178 907 36 701 b 171 411 36 483 81 411 b 468 756 326 411 468 617 z m 1107 331 b 907 82 1107 238 1001 82 b 869 138 881 82 869 103 b 1069 386 869 231 975 386 b 1107 331 1096 386 1107 365 z m 825 331 b 625 82 825 238 718 82 b 586 138 599 82 586 103 b 786 386 586 231 693 386 b 825 331 814 386 825 365 z m 371 756 b 171 507 371 663 265 507 b 133 563 144 507 133 528 b 333 811 133 656 239 811 b 371 756 360 811 371 790 z "},"Â":{"ha":867,"x_min":0,"x_max":0,"o":"m 629 1015 b 610 1054 629 1031 622 1046 l 460 1151 b 435 1158 451 1157 443 1158 b 410 1151 426 1158 418 1157 l 258 1053 b 238 1015 246 1044 238 1031 b 282 971 238 990 258 971 b 307 978 292 971 300 974 l 435 1060 l 560 978 b 585 971 568 974 576 971 b 629 1015 610 971 629 990 z m 840 39 b 836 60 840 46 839 53 l 485 875 b 433 907 475 894 456 907 b 383 874 413 907 392 894 l 32 60 b 28 40 29 54 28 47 b 78 -10 28 13 50 -10 b 124 21 99 -10 117 1 l 236 281 l 632 281 l 744 19 b 790 -11 751 1 771 -11 b 840 39 818 -11 840 13 z m 589 381 l 279 381 l 433 739 z "},"Ê":{"ha":606,"x_min":0,"x_max":0,"o":"m 508 1015 b 488 1054 508 1031 500 1046 l 338 1151 b 314 1158 331 1157 322 1158 b 289 1151 304 1158 296 1157 l 136 1053 b 117 1015 124 1044 117 1031 b 161 971 117 990 136 971 b 186 978 169 971 178 974 l 314 1060 l 439 978 b 464 971 446 974 454 971 b 508 1015 488 971 508 990 z m 572 47 b 522 96 572 75 550 96 l 164 96 l 164 489 l 490 489 b 540 538 518 489 540 510 b 490 585 540 564 518 585 l 164 585 l 164 794 l 515 794 b 567 843 543 794 567 817 b 515 892 567 869 543 892 l 114 892 b 64 843 86 892 64 869 l 64 47 b 114 0 64 21 86 0 l 522 0 b 572 47 550 0 572 21 z "},"Á":{"ha":867,"x_min":0,"x_max":0,"o":"m 586 1110 b 540 1154 586 1133 565 1154 b 515 1146 532 1154 522 1151 l 374 1047 b 354 1011 361 1039 354 1025 b 400 965 354 986 375 965 b 425 974 408 965 418 968 l 567 1072 b 586 1110 578 1081 586 1094 z m 840 39 b 836 60 840 46 839 53 l 485 875 b 433 907 475 894 456 907 b 383 874 413 907 392 894 l 32 60 b 28 40 29 54 28 47 b 78 -10 28 13 50 -10 b 124 21 99 -10 117 1 l 236 281 l 632 281 l 744 19 b 790 -11 751 1 771 -11 b 840 39 818 -11 840 13 z m 589 381 l 279 381 l 433 739 z "},"Ë":{"ha":606,"x_min":0,"x_max":0,"o":"m 507 1024 b 444 1086 507 1058 479 1086 b 382 1024 410 1086 382 1058 b 444 961 382 989 410 961 b 507 1024 479 961 507 989 z m 269 1024 b 207 1086 269 1058 240 1086 b 144 1024 172 1086 144 1058 b 207 961 144 989 172 961 b 269 1024 240 961 269 989 z m 572 47 b 522 96 572 75 550 96 l 164 96 l 164 489 l 490 489 b 540 538 518 489 540 510 b 490 585 540 564 518 585 l 164 585 l 164 794 l 515 794 b 567 843 543 794 567 817 b 515 892 567 869 543 892 l 114 892 b 64 843 86 892 64 869 l 64 47 b 114 0 64 21 86 0 l 522 0 b 572 47 550 0 572 21 z "},"È":{"ha":606,"x_min":0,"x_max":0,"o":"m 403 1006 b 383 1042 403 1019 394 1033 l 242 1140 b 215 1149 233 1146 225 1149 b 171 1104 192 1149 171 1129 b 190 1067 171 1089 178 1075 l 332 968 b 357 960 339 963 349 960 b 403 1006 382 960 403 981 z m 572 47 b 522 96 572 75 550 96 l 164 96 l 164 489 l 490 489 b 540 538 518 489 540 510 b 490 585 540 564 518 585 l 164 585 l 164 794 l 515 794 b 567 843 543 794 567 817 b 515 892 567 869 543 892 l 114 892 b 64 843 86 892 64 869 l 64 47 b 114 0 64 21 86 0 l 522 0 b 572 47 550 0 572 21 z "},"Í":{"ha":228,"x_min":0,"x_max":0,"o":"m 269 1110 b 225 1154 269 1133 250 1154 b 199 1146 215 1154 207 1151 l 58 1047 b 39 1011 46 1039 39 1025 b 83 965 39 986 58 965 b 110 974 93 965 101 968 l 250 1072 b 269 1110 263 1081 269 1094 z m 164 40 l 164 851 b 114 900 164 878 142 900 b 64 851 86 900 64 878 l 64 40 b 114 -8 64 14 86 -8 b 164 40 142 -8 164 14 z "},"Î":{"ha":228,"x_min":0,"x_max":0,"o":"m 310 1015 b 289 1054 310 1031 301 1046 l 139 1151 b 115 1158 132 1157 124 1158 b 90 1151 106 1158 97 1157 l -61 1053 b -82 1015 -75 1044 -82 1031 b -37 971 -82 990 -62 971 b -12 978 -29 971 -21 974 l 115 1060 l 240 978 b 265 971 247 974 256 971 b 310 1015 289 971 310 990 z m 164 40 l 164 851 b 114 900 164 878 142 900 b 64 851 86 900 64 878 l 64 40 b 114 -8 64 14 86 -8 b 164 40 142 -8 164 14 z "},"Ï":{"ha":228,"x_min":0,"x_max":0,"o":"m 294 1024 b 233 1086 294 1058 267 1086 b 171 1024 199 1086 171 1058 b 233 961 171 989 199 961 b 294 1024 267 961 294 989 z m 57 1024 b -6 1086 57 1058 29 1086 b -68 1024 -40 1086 -68 1058 b -6 961 -68 989 -40 961 b 57 1024 29 961 57 989 z m 164 40 l 164 851 b 114 900 164 878 142 900 b 64 851 86 900 64 878 l 64 40 b 114 -8 64 14 86 -8 b 164 40 142 -8 164 14 z "},"Ì":{"ha":228,"x_min":0,"x_max":0,"o":"m 189 1006 b 169 1042 189 1019 182 1033 l 28 1140 b 3 1149 21 1146 11 1149 b -43 1104 -22 1149 -43 1129 b -24 1067 -43 1089 -35 1075 l 118 968 b 144 960 126 963 135 960 b 189 1006 168 960 189 981 z m 164 40 l 164 851 b 114 900 164 878 142 900 b 64 851 86 900 64 878 l 64 40 b 114 -8 64 14 86 -8 b 164 40 142 -8 164 14 z "},"Ó":{"ha":886,"x_min":0,"x_max":0,"o":"m 707 1110 b 663 1154 707 1133 686 1154 b 636 1146 653 1154 644 1151 l 494 1047 b 475 1011 483 1039 475 1025 b 521 965 475 986 496 965 b 546 974 529 965 539 968 l 688 1072 b 707 1110 700 1081 707 1094 z m 853 549 b 531 907 853 729 743 907 b 33 344 246 907 33 594 b 354 -15 33 164 143 -15 b 853 549 640 -15 853 300 z m 753 549 b 354 82 753 343 578 82 b 133 344 208 82 133 210 b 531 810 133 550 308 810 b 753 549 678 810 753 683 z "},"Ô":{"ha":886,"x_min":0,"x_max":0,"o":"m 738 1015 b 717 1054 738 1031 729 1046 l 567 1151 b 543 1158 560 1157 551 1158 b 518 1151 533 1158 525 1157 l 365 1053 b 346 1015 353 1044 346 1031 b 390 971 346 990 365 971 b 415 978 399 971 407 974 l 543 1060 l 668 978 b 693 971 675 974 683 971 b 738 1015 717 971 738 990 z m 853 549 b 531 907 853 729 743 907 b 33 344 246 907 33 594 b 354 -15 33 164 143 -15 b 853 549 640 -15 853 300 z m 753 549 b 354 82 753 343 578 82 b 133 344 208 82 133 210 b 531 810 133 550 308 810 b 753 549 678 810 753 683 z "},"Ò":{"ha":886,"x_min":0,"x_max":0,"o":"m 644 1006 b 625 1042 644 1019 638 1033 l 485 1140 b 458 1149 476 1146 468 1149 b 414 1104 433 1149 414 1129 b 433 1067 414 1089 421 1075 l 574 968 b 600 960 582 963 590 960 b 644 1006 625 960 644 981 z m 853 549 b 531 907 853 729 743 907 b 33 344 246 907 33 594 b 354 -15 33 164 143 -15 b 853 549 640 -15 853 300 z m 753 549 b 354 82 753 343 578 82 b 133 344 208 82 133 210 b 531 810 133 550 308 810 b 753 549 678 810 753 683 z "},"Ú":{"ha":778,"x_min":0,"x_max":0,"o":"m 558 1110 b 514 1154 558 1133 539 1154 b 488 1146 504 1154 496 1151 l 347 1047 b 328 1011 335 1039 328 1025 b 372 965 328 986 347 965 b 399 974 382 965 390 968 l 539 1072 b 558 1110 551 1081 558 1094 z m 714 351 l 714 853 b 664 901 714 879 690 901 b 613 853 636 901 613 879 l 613 351 b 389 82 613 213 547 82 b 164 351 231 82 164 213 l 164 853 b 114 901 164 879 142 901 b 64 853 86 901 64 879 l 64 351 b 389 -15 64 165 163 -15 b 714 351 614 -15 714 165 z "},"Û":{"ha":778,"x_min":0,"x_max":0,"o":"m 585 1015 b 564 1054 585 1031 576 1046 l 414 1151 b 390 1158 407 1157 399 1158 b 365 1151 381 1158 372 1157 l 214 1053 b 193 1015 200 1044 193 1031 b 238 971 193 990 213 971 b 263 978 246 971 254 974 l 390 1060 l 515 978 b 540 971 522 974 531 971 b 585 1015 564 971 585 990 z m 714 351 l 714 853 b 664 901 714 879 690 901 b 613 853 636 901 613 879 l 613 351 b 389 82 613 213 547 82 b 164 351 231 82 164 213 l 164 853 b 114 901 164 879 142 901 b 64 853 86 901 64 879 l 64 351 b 389 -15 64 165 163 -15 b 714 351 614 -15 714 165 z "},"Ù":{"ha":778,"x_min":0,"x_max":0,"o":"m 443 1006 b 424 1042 443 1019 435 1033 l 282 1140 b 256 1149 275 1146 265 1149 b 211 1104 232 1149 211 1129 b 231 1067 211 1089 218 1075 l 372 968 b 397 960 379 963 389 960 b 443 1006 422 960 443 981 z m 714 351 l 714 853 b 664 901 714 879 690 901 b 613 853 636 901 613 879 l 613 351 b 389 82 613 213 547 82 b 164 351 231 82 164 213 l 164 853 b 114 901 164 879 142 901 b 64 853 86 901 64 879 l 64 351 b 389 -15 64 165 163 -15 b 714 351 614 -15 714 165 z "},"ı":{"ha":200,"x_min":0,"x_max":0,"o":"m 149 38 l 149 546 b 100 594 149 572 126 594 b 51 546 74 594 51 572 l 51 38 b 100 -11 51 11 74 -11 b 149 38 126 -11 149 11 z "},"ˆ":{"ha":614,"x_min":0,"x_max":0,"o":"m 500 764 b 479 803 500 779 492 794 l 329 900 b 304 907 322 906 314 907 b 281 900 296 907 288 906 l 128 803 b 107 764 115 794 107 779 b 153 719 107 739 128 719 b 176 726 161 719 169 722 l 304 808 l 431 726 b 454 719 438 722 446 719 b 500 764 479 719 500 740 z "},"˜":{"ha":614,"x_min":0,"x_max":0,"o":"m 560 856 b 514 901 560 881 539 901 b 403 840 476 901 458 840 b 318 872 369 840 346 856 b 208 907 290 889 257 907 b 61 808 142 907 90 858 b 54 785 57 801 54 793 b 99 739 54 760 74 739 b 210 818 138 739 151 818 b 288 786 239 818 264 800 b 404 750 317 768 351 750 b 549 828 463 750 515 783 b 560 856 556 835 560 844 z "},"¯":{"ha":593,"x_min":0,"x_max":0,"o":"m 474 846 b 428 892 474 871 453 892 l 164 892 b 119 846 139 892 119 871 b 164 801 119 821 139 801 l 428 801 b 474 846 453 801 474 821 z "},"˘":{"ha":614,"x_min":0,"x_max":0,"o":"m 522 858 b 478 903 522 883 503 903 b 303 808 428 903 411 808 b 136 903 193 808 189 903 b 92 858 111 903 92 882 b 99 833 92 849 94 840 b 303 718 140 764 221 718 b 514 832 385 718 467 764 b 522 858 519 839 522 849 z "},"˙":{"ha":614,"x_min":0,"x_max":0,"o":"m 369 839 b 307 901 369 872 342 901 b 244 839 272 901 244 872 b 307 776 244 804 272 776 b 369 839 342 776 369 804 z "},"˚":{"ha":614,"x_min":0,"x_max":0,"o":"m 478 832 b 328 963 478 917 400 963 b 138 800 242 963 138 900 b 288 669 138 714 215 669 b 478 832 374 669 478 732 z m 388 835 b 288 751 388 788 332 751 b 228 797 257 751 228 769 b 328 881 228 844 283 881 b 388 835 358 881 388 863 z "},"¸":{"ha":614,"x_min":0,"x_max":0,"o":"m 393 -89 b 293 15 393 -32 351 15 b 232 -29 267 15 232 6 b 274 -72 232 -53 250 -72 b 293 -69 281 -72 286 -69 b 311 -89 304 -69 311 -76 b 194 -190 311 -160 194 -125 b 235 -233 194 -214 213 -233 b 242 -232 238 -233 240 -232 b 393 -89 310 -219 393 -176 z "},"˝":{"ha":614,"x_min":0,"x_max":0,"o":"m 547 861 b 503 906 547 886 526 906 b 476 899 493 906 483 903 l 335 800 b 315 763 324 792 315 778 b 361 718 315 738 336 718 b 386 725 369 718 379 721 l 528 824 b 547 861 540 832 547 846 z m 297 861 b 253 906 297 886 278 906 b 226 899 243 906 235 903 l 86 800 b 67 763 74 792 67 778 b 111 718 67 738 86 718 b 138 725 121 718 129 721 l 278 824 b 297 861 290 832 297 846 z "},"˛":{"ha":614,"x_min":0,"x_max":0,"o":"m 406 -190 b 289 -89 406 -125 289 -160 b 307 -69 289 -76 296 -69 b 326 -72 314 -69 319 -72 b 368 -31 350 -72 368 -53 b 307 15 368 6 333 15 b 207 -89 249 15 207 -32 b 365 -233 207 -169 294 -233 b 406 -190 388 -233 406 -214 z "},"ˇ":{"ha":614,"x_min":0,"x_max":0,"o":"m 503 861 b 457 906 503 886 482 906 b 433 899 449 906 440 903 l 306 817 l 179 899 b 156 906 172 903 164 906 b 110 860 131 906 110 885 b 131 822 110 844 118 831 l 281 725 b 304 718 288 719 296 718 b 329 725 314 718 322 719 l 482 822 b 503 861 494 831 503 846 z "}," ":{"ha":328,"x_min":0,"x_max":0,"o":""},"€":{"ha":885,"x_min":0,"x_max":0,"o":"m 849 150 b 797 200 849 178 824 200 b 768 190 788 200 778 196 b 478 82 665 118 564 82 b 235 254 361 82 269 150 l 561 254 b 610 303 588 254 610 275 b 561 351 610 329 588 351 l 222 351 b 232 422 222 375 226 400 l 561 422 b 610 471 588 422 610 444 b 561 519 610 497 588 519 l 272 519 b 799 810 374 683 604 782 b 840 858 822 814 840 833 b 790 907 840 886 817 907 b 782 906 788 907 785 907 b 160 519 542 871 261 740 l 83 519 b 33 471 56 519 33 497 b 83 422 33 444 56 422 l 129 422 b 121 351 124 399 122 375 l 83 351 b 33 303 56 351 33 329 b 83 254 33 275 56 254 l 132 254 b 472 -15 168 96 304 -15 b 828 111 588 -15 707 28 b 849 150 840 121 849 135 z "},"Ð":{"ha":944,"x_min":0,"x_max":0,"o":"m 897 563 b 503 906 897 782 711 906 b 171 829 399 906 258 869 b 142 785 153 821 142 806 l 142 513 l 49 474 b 18 429 29 467 18 447 b 22 410 18 422 19 415 b 68 381 31 392 49 381 b 86 383 74 381 81 382 l 142 407 l 142 39 b 192 -10 142 11 164 -10 b 200 -10 194 -10 197 -10 b 897 563 517 43 897 231 z m 797 561 b 242 90 797 306 485 143 l 242 447 l 360 497 b 390 542 379 504 390 522 b 386 561 390 549 389 554 b 340 590 378 579 360 590 b 322 586 335 590 328 589 l 242 553 l 242 753 b 503 810 325 786 414 810 b 797 561 663 810 797 722 z "},"ð":{"ha":718,"x_min":0,"x_max":0,"o":"m 685 444 b 474 836 685 642 607 769 l 525 894 b 538 928 533 904 538 915 b 522 963 538 940 532 953 b 489 976 513 972 500 976 b 453 961 475 976 463 971 l 375 872 b 186 894 318 888 256 894 b 136 846 158 894 136 874 b 186 799 136 819 158 799 b 303 790 226 799 265 796 l 247 728 b 235 693 239 718 235 706 b 250 658 235 681 239 668 b 283 644 258 650 271 644 b 318 661 296 644 308 650 l 408 763 b 557 610 475 733 528 686 b 19 203 347 579 19 457 b 265 -14 19 64 133 -14 b 685 444 533 -14 685 207 z m 585 444 b 265 83 585 254 472 83 b 119 201 183 83 119 122 b 579 522 119 393 400 494 b 585 444 583 496 585 471 z "},"Ł":{"ha":643,"x_min":0,"x_max":0,"o":"m 614 49 b 564 97 614 75 592 97 l 260 97 l 260 465 l 410 526 b 440 572 428 535 440 553 b 436 590 440 578 439 585 b 390 621 429 608 410 621 b 372 617 385 621 379 619 l 260 571 l 260 851 b 210 900 260 878 238 900 b 160 851 182 900 160 878 l 160 531 l 47 485 b 17 439 28 476 17 458 b 19 421 17 433 18 426 b 65 390 28 401 46 390 b 83 394 71 390 78 392 l 160 425 l 160 49 b 210 0 160 22 182 0 l 564 0 b 614 49 592 0 614 22 z "},"ł":{"ha":376,"x_min":0,"x_max":0,"o":"m 353 550 b 303 600 353 578 329 600 b 285 596 297 600 292 599 l 236 576 l 236 851 b 186 901 236 879 214 901 b 138 851 160 901 138 879 l 138 536 l 51 501 b 21 456 33 494 21 475 b 71 408 21 429 44 408 b 89 411 76 408 82 408 l 138 432 l 138 39 b 186 -10 138 13 160 -10 b 236 39 214 -10 236 13 l 236 471 l 322 506 b 353 550 340 513 353 531 z "},"Š":{"ha":643,"x_min":0,"x_max":0,"o":"m 515 1110 b 471 1156 515 1135 496 1156 b 446 1149 461 1156 453 1153 l 318 1065 l 193 1147 b 168 1156 186 1153 176 1156 b 124 1110 143 1156 124 1135 b 144 1072 124 1094 131 1081 l 294 974 b 318 967 301 969 310 967 b 343 974 326 967 335 969 l 494 1072 b 515 1110 508 1081 515 1094 z m 611 236 b 268 567 611 419 408 514 b 135 696 206 592 135 633 b 299 810 135 768 224 810 b 492 757 364 810 435 788 b 518 751 500 753 508 751 b 572 800 544 751 572 769 b 299 907 572 878 350 907 b 35 696 181 907 35 833 b 511 236 35 436 511 475 b 315 82 511 132 424 82 b 107 154 236 82 171 107 b 74 165 97 161 86 165 b 25 117 49 165 25 147 b 42 82 25 101 32 90 b 315 -15 106 18 229 -15 b 611 236 472 -15 611 72 z "}}}
